<svg xmlns="http://www.w3.org/2000/svg" xmlns:xlink="http://www.w3.org/1999/xlink" xmlns:lucid="lucid" width="2737.42" height="1785.32"><g transform="translate(518.0601813608325 763.6559825481921)" lucid:page-tab-id="0_0"><path d="M205.82-316.1H1471.3V929.56H205.83z" stroke="#8c4fff" stroke-width="3" fill="#fff" fill-opacity="0"/><path d="M205.82-316.1h56v56h-56z" stroke="#fff" stroke-opacity="0" fill="#8c4fff"/><path d="M249.2-286.64l-4.13-1.77v14.67c3.57-.48 4.12-4.16 4.12-4.3v-8.6zm-5.54 12.95v-14.7l-4.23 1.76v8.68c0 .07.63 3.86 4.23 4.27zm.44-16.44c.2-.07.4-.07.54.04l5.53 2.35c.28.1.43.37.43.63v9.16c-.23 2.02-1.88 5.7-6.35 5.7-4.3 0-5.96-3.68-6.23-5.6v-9.26c0-.26.2-.52.43-.63l5.65-2.4zm7.9.92l-7.63-3.38-7.76 3.27v9.97c0 .07-.03 4 2.36 6.48 1.25 1.32 3.06 1.98 5.3 1.98 2.27 0 4.03-.66 5.36-1.98 2.43-2.47 2.4-6.44 2.4-6.48v-9.86zm-1.4 17.3c-1.56 1.6-3.68 2.42-6.35 2.42-2.62 0-4.74-.8-6.3-2.43-2.83-2.87-2.7-7.28-2.7-7.47v-10.4c0-.3.14-.56.42-.63l8.43-3.57c.2-.08.4-.08.54 0l8.35 3.68c.27.1.43.37.43.62v10.34c0 .2.03 4.56-2.83 7.43zm-29.4-10.24h11.2v1.4h-11.2c-3.92 0-6.74-2.83-6.97-7.03v-.5c0-3.53 1.84-5.92 5.33-7 0-.28-.04-.65-.04-.87 0-4.1 2.23-7.66 5.64-9.05 4.63-1.88 9.84-1.25 12.74 1.54 1.06 1.03 1.88 2.17 2.47 3.5.86-.63 1.96-.92 3.3-.85 2.5.1 4.42 2.4 4.82 5.6 2.06.18 3.47 1.24 4.18 3.23l-1.3.48c-.58-1.62-1.68-2.36-3.56-2.36-.35 0-.67-.25-.67-.66-.2-3.24-2-4.82-3.56-4.9-1.35-.06-2.33.3-2.9 1.1-.17.2-.4.3-.68.27-.24-.04-.47-.22-.55-.44-.6-1.56-1.4-2.85-2.55-3.95-2.5-2.43-7.13-2.94-11.25-1.25-2.86 1.18-4.74 4.2-4.74 7.73 0 .37.04.95.08 1.32.05.37-.15.7-.5.77-3.22.8-4.86 2.73-4.86 5.78v.4c.2 3.5 2.4 5.74 5.56 5.74z" stroke="#fff" stroke-opacity="0" fill="#fff"/><use xlink:href="#a" transform="matrix(1,0,0,1,276.8250424446659,-296.0911479588455) translate(0 21.52777777777778)"/><use xlink:href="#b" transform="matrix(1,0,0,1,276.8250424446659,-296.0911479588455) translate(73.94748263888889 21.52777777777778)"/><use xlink:href="#c" transform="matrix(1,0,0,1,276.8250424446659,-296.0911479588455) translate(152.76692708333331 21.52777777777778)"/><use xlink:href="#d" transform="matrix(1,0,0,1,276.8250424446659,-296.0911479588455) translate(217.1657986111111 21.52777777777778)"/><path d="M107.57-512.66H1575.6v1528.42H107.56z" stroke="#242f3e" stroke-width="3" fill="#fff" fill-opacity="0"/><path d="M107.57-512.66h56v56h-56z" stroke="#fff" stroke-opacity="0" fill="#242f3e"/><path d="M125.8-486.8c-.04.5.04.88.16 1.35.13.37.3.7.5 1.06.04.1.08.22.08.35 0 .2-.13.35-.3.45l-.93.62c-.12.08-.24.13-.36.13-.17 0-.33-.07-.46-.22-.2-.2-.37-.42-.53-.7-.16-.24-.3-.52-.45-.86-1.1 1.38-2.63 2.1-4.4 2.07-1.14.06-2.13-.3-2.95-1.08-.78-.8-1.15-1.76-1.1-2.86-.05-1.22.4-2.27 1.34-3.07 1.06-.85 2.3-1.23 3.65-1.16.57 0 1.03.03 1.6.12.58.07 1.1.18 1.72.3v-1.1c.1-.87-.16-1.66-.7-2.36-.73-.56-1.55-.8-2.46-.7-.52 0-1 .07-1.6.2-.56.13-1 .3-1.6.5l-.48.2h-.25c-.2 0-.33-.16-.33-.45v-.76c0-.18.04-.34.13-.5.12-.16.24-.26.4-.33.66-.3 1.2-.5 1.9-.66.78-.2 1.47-.3 2.3-.3 1.47-.1 2.8.28 3.9 1.22.94 1.04 1.35 2.28 1.23 3.67zm-6.08 2.3c.58 0 1.07-.1 1.6-.3.58-.2 1.03-.5 1.44-.95.25-.28.4-.58.5-.94.1-.44.16-.84.16-1.3v-.66c-.54-.1-.95-.17-1.44-.2h-1.4c-.82-.08-1.56.12-2.2.58-.55.45-.8 1.04-.75 1.73-.04.6.12 1.15.53 1.6.45.37 1 .5 1.56.44zm12 1.6c-.2 0-.42-.04-.58-.17-.17-.16-.25-.35-.33-.6l-3.48-11.5-.13-.62c0-.22.12-.35.36-.35h1.48c.2-.02.37.03.58.14.16.17.24.36.28.58l2.5 9.97 2.4-9.94c0-.23.07-.43.28-.6.16-.1.37-.15.57-.14h1.2c.24 0 .4.03.6.14.17.2.26.37.3.6l2.34 9.94 2.53-10c.05-.2.17-.4.33-.58.17-.1.37-.17.58-.14h1.4c.16 0 .32.1.36.3V-495.58s0 .2-.12.36l-3.6 11.52c-.06.22-.14.42-.3.6-.2.1-.37.14-.58.13h-1.27c-.25.02-.45-.03-.62-.16-.15-.18-.23-.37-.27-.6l-2.3-9.6-2.3 9.6c-.04.23-.13.42-.3.6-.2.12-.4.18-.6.15zm19.2.37c-.8 0-1.5-.07-2.3-.26-.65-.1-1.14-.3-1.72-.57-.2-.1-.37-.24-.45-.43-.08-.14-.12-.28-.12-.43v-.75c0-.3.12-.46.33-.46h.3l.35.15c.6.25 1.04.4 1.62.52.6.14 1.15.2 1.8.2.78.05 1.48-.1 2.18-.5.5-.3.78-.8.74-1.4.04-.4-.12-.76-.37-1.04-.45-.4-.95-.65-1.52-.8l-2.18-.68c-.94-.25-1.72-.73-2.38-1.5-.5-.65-.75-1.35-.75-2.18 0-.6.13-1.08.4-1.6.3-.5.63-.9 1.08-1.23.5-.38 1-.6 1.6-.78.66-.18 1.2-.27 1.9-.25.32-.03.6-.03.98 0l1 .15.8.24.67.26c.16.1.3.22.45.38.1.15.13.3.13.5v.7c0 .3-.13.47-.37.47-.2-.03-.37-.1-.58-.2-.94-.4-1.8-.6-2.87-.56-.7-.03-1.32.1-1.97.42-.5.3-.74.78-.7 1.35 0 .4.12.75.45 1.05.5.4 1 .65 1.6.8l2.1.7c.95.23 1.7.7 2.3 1.42.5.64.7 1.3.7 2.1 0 .63-.12 1.16-.37 1.73-.28.54-.6.95-1.1 1.32-.5.38-1 .65-1.6.83-.75.24-1.4.34-2.14.35zM153.68-475.18c-5.6 3.82-11.37 5.58-18.16 5.56-8.54.05-15.82-2.74-22.16-8.45-.5-.42 0-1 .5-.67 7.07 4.05 14.02 5.9 22.2 5.88 6.1-.02 11.28-1.07 16.93-3.45.8-.36 1.5.53.68 1.12z" stroke="#fff" stroke-opacity="0" fill="#fff"/><path d="M155.74-477.46c-.65-.82-4.17-.4-5.75-.2-.5 0-.56-.36-.12-.67 2.8-1.97 7.4-1.4 8-.73.6.67-.15 5.28-2.8 7.48-.4.34-.77.15-.6-.28.55-1.52 1.88-4.83 1.26-5.6z" stroke="#fff" stroke-opacity="0" fill="#fff"/><use xlink:href="#e" transform="matrix(1,0,0,1,178.57409490468444,-492.6616871243258) translate(0 21.52777777777778)"/><use xlink:href="#f" transform="matrix(1,0,0,1,178.57409490468444,-492.6616871243258) translate(91.92708333333331 21.52777777777778)"/><path d="M138.53-421.83H1538.6V977.84H138.53z" fill="#fff" fill-opacity="0"/><path d="M156.63-421.83h12.07m12.07 0h12.07m12.07 0H217m12.07 0h12.07m12.07 0h12.06m12.07 0h12.07m12.07 0h12.07m12.07 0h12.08m12.07 0h12.07m12.06 0h12.07m12.07 0h12.07m12.06 0h12.07m12.07 0h12.07m12.07 0h12.07m12.08 0h12.07m12.07 0h12.07m12.06 0h12.07m12.07 0h12.07m12.07 0h12.07m12.08 0h12.07m12.07 0h12.07m12.05 0h12.07m12.07 0h12.06m12.07 0h12.07m12.07 0h12.07m12.07 0h12.08m12.07 0h12.07m12.07 0h12.06m12.07 0h12.07m12.07 0h12.07m12.07 0h12.08m12.07 0h12.07m12.07 0h12.05m12.07 0h12.07m12.06 0h12.07m12.07 0h12.07m12.07 0h12.07m12.08 0h12.07m12.07 0H1086m12.06 0h12.07m12.07 0h12.07m12.07 0h12.07m12.08 0h12.07m12.07 0h12.07m12.06 0h12.06m12.07 0h12.06m12.07 0h12.07m12.07 0h12.07m12.07 0h12.08m12.07 0h12.07m12.07 0h12.06m12.07 0h12.07m12.07 0h12.07m12.07 0h12.08m12.07 0h12.07m12.07 0h12.06m12.06 0h12.07m12.06 0h6.04v6.03m0 12.07v12.06m0 12.07v12.07m0 12.06v12.07m0 12.06v12.07m0 12.07v12.06m0 12.07V-271m0 12.06v12.07m0 12.06v12.06m0 12.07v12.06m0 12.06v12.07m0 12.06v12.06m0 12.06v12.07m0 12.06v12.06m0 12.07v12.06m0 12.06v12.07m0 12.05v12.07m0 12.07v12.05m0 12.07v12.06m0 12.07v12.07m0 12.06v12.07m0 12.07v12.06m0 12.07v12.06m0 12.08v12.07m0 12.06v12.08m0 12.06v12.07m0 12.08v12.06m0 12.07v12.08m0 12.06v12.07m0 12.07v12.07m0 12.07v12.07m0 12.07v12.06m0 12.07v12.07m0 12.06v12.07m0 12.06v12.07m0 12.07v12.06m0 12.07v12.07m0 12.06v12.07m0 12.06v12.07m0 12.07v12.06m0 12.07v12.07m0 12.06v12.07m0 12.06v12.06m0 12.07v12.06m0 12.06v12.06m0 12.07v12.06m0 12.06v12.07m0 12.06v12.06m0 12.07v12.05m0 12.07v12.07m0 12.05v12.07m0 12.06v12.07m0 12.07v12.06m0 12.07v12.07m0 12.06v12.07m0 12.06v12.08m0 12.07v12.06m0 12.08v12.07m0 12.06v6.05h-6.04m-12.07 0h-12.08m-12.07 0h-12.06m-12.08 0h-12.07m-12.07 0H1436m-12.06 0h-12.07m-12.07 0h-12.07m-12.07 0h-12.07m-12.08 0h-12.07m-12.07 0h-12.07m-12.06 0h-12.07m-12.07 0h-12.07m-12.07 0h-12.07m-12.08 0h-12.06m-12.08 0h-12.06m-12.07 0h-12.07m-12.07 0h-12.06m-12.07 0h-12.07m-12.07 0h-12.07m-12.07 0h-12.08m-12.07 0h-12.07m-12.07 0h-12.06m-12.07 0h-12.07m-12.07 0h-12.07m-12.07 0H953.2m-12.07 0H929.1m-12.08 0h-12.07m-12.07 0H880.8m-12.06 0h-12.07m-12.07 0h-12.07m-12.07 0H808.4m-12.08 0h-12.07m-12.07 0H760.1m-12.06 0h-12.07m-12.07 0h-12.07m-12.07 0H687.7m-12.08 0h-12.07m-12.06 0H639.4m-12.07 0h-12.07m-12.07 0h-12.06m-12.07 0H567m-12.07 0h-12.07m-12.07 0H518.7m-12.07 0h-12.07m-12.07 0h-12.06m-12.07 0H446.3m-12.07 0h-12.07m-12.07 0H398m-12.06 0H373.9m-12.08 0h-12.07m-12.07 0H325.6m-12.06 0h-12.07m-12.07 0h-12.07m-12.07 0H253.2m-12.08 0h-12.07m-12.07 0H204.9m-12.06 0h-12.07m-12.07 0h-12.07m-12.07 0h-6.03v-6.04m0-12.05v-12.07m0-12.07v-12.05m0-12.07V899.4m0-12.05v-12.07m0-12.06v-12.07m0-12.07v-12.06m0-12.07v-12.07m0-12.06v-12.07m0-12.06V754.6m0-12.07V730.5m0-12.08v-12.06m0-12.07V682.2m0-12.06V658.1m0-12.08v-12.06m0-12.07v-12.07m0-12.07V585.7m0-12.07v-12.07m0-12.06v-12.07m0-12.07V513.3m0-12.07v-12.06m0-12.07v-12.07m0-12.06V440.9m0-12.07v-12.06m0-12.07v-12.06m0-12.07V368.5m0-12.06v-12.07m0-12.06v-12.06m0-12.07V296.1m0-12.06v-12.07m0-12.06v-12.06m0-12.06V223.7m0-12.06v-12.06m0-12.07v-12.06m0-12.06V151.3m0-12.05v-12.07m0-12.07v-12.05m0-12.07V78.92m0-12.07V54.78m0-12.06V30.65m0-12.07V6.52m0-12.07V-17.6m0-12.08v-12.07m0-12.06V-65.9m0-12.06V-90m0-12.08v-12.06m0-12.07v-12.08m0-12.06v-12.07m0-12.07v-12.07m0-12.07v-12.07m0-12.07v-12.06m0-12.07v-12.07m0-12.06v-12.07m0-12.07v-12.06m0-12.07v-12.06m0-12.07v-12.07m0-12.06v-12.07m0-12.06v-12.07m0-12.07v-6.03h6.03" stroke="#00a4a6" stroke-width="3" fill="none"/><path d="M138.53-421.83h56v56h-56z" stroke="#fff" stroke-opacity="0" fill="#00a4a6"/><path d="M182.37-392.47l-5.96-7.36 5.97-7.4H156.2v-2.08c.98-.33 1.62-1.17 1.62-2.2-.1-1.16-1.02-2.03-2.16-2.15-1.3-.08-2.44.87-2.53 2.15 0 1.03.63 1.87 1.58 2.2v33.88h-4v1.6h9.43v-1.6h-3.93v-17.05zm-26.96-19.75c.42-.04.77.32.77.72 0 .44-.32.75-.73.75-.4.04-.76-.3-.76-.7v-.05c0-.4.32-.72.73-.72zm23.6 6.6l-4.65 5.8 4.66 5.72h-22.8v-11.5z" stroke="#fff" stroke-opacity="0" fill="#fff"/><use xlink:href="#g" transform="matrix(1,0,0,1,209.52885484288197,-401.83083060359354) translate(0 21.52777777777778)"/><use xlink:href="#h" transform="matrix(1,0,0,1,209.52885484288197,-401.83083060359354) translate(85.9917534722222 21.52777777777778)"/><path d="M240.5-197.22h631.67v1102.6H240.5z" fill="#fff" fill-opacity="0"/><path d="M258.73-197.22h12.15m12.15 0h12.14m12.15 0h12.15m12.15 0h12.14m12.15 0h12.16m12.14 0h12.15m12.15 0h12.15m12.14 0h12.14m12.15 0h12.14m12.14 0h12.15m12.15 0h12.15m12.14 0h12.15m12.15 0h12.14m12.16 0h12.15m12.16 0H611m12.15 0h12.15m12.15 0h12.14m12.14 0h12.15m12.13 0h12.15m12.15 0h12.15m12.14 0h12.15m12.15 0h12.15m12.14 0h12.16m12.15 0h12.16m12.14 0h12.15m12.15 0h6.07v6m0 11.98v11.98m0 12v11.97m0 12v11.98m0 12v11.97m0 12v11.97m0 12v11.97m0 11.98v11.98m0 12V.52m0 12v11.97m0 11.98v12m0 11.98v11.98m0 11.98v12m0 11.97v11.98m0 11.98v12m0 11.97v12m0 11.97v12m0 11.97v12m0 11.97v12m0 11.97v12m0 11.98v12m0 11.97v12m0 11.97v12m0 11.97v11.97m0 12v11.97m0 12V408m0 12v11.98m0 12v11.97m0 12v11.97m0 12v11.97m0 11.98v11.98m0 12v11.97m0 12v11.97m0 12v11.97m0 12v11.97m0 12v11.97m0 12v11.98m0 12v11.97m0 11.98v12m0 11.97v12m0 11.97v12m0 11.97v12m0 11.97v12m0 11.98v12m0 11.97v12m0 11.97v12m0 11.97v5.98h-6.07m-12.15 0H841.8m-12.14 0H817.5m-12.14 0H793.2m-12.13 0h-12.15m-12.15 0h-12.14m-12.15 0h-12.15m-12.15 0h-12.14m-12.15 0h-12.16m-12.15 0h-12.15m-12.15 0h-12.15m-12.15 0h-12.14m-12.15 0h-12.14m-12.14 0h-12.15m-12.15 0h-12.15m-12.14 0h-12.15m-12.15 0h-12.15m-12.14 0H453.1m-12.16 0H428.8m-12.15 0H404.5m-12.15 0H380.2m-12.14 0H355.9m-12.14 0h-12.14m-12.15 0h-12.15m-12.15 0h-12.14m-12.15 0h-12.15m-12.15 0h-6.07v-6m0-11.97v-11.98m0-11.98v-12m0-11.97v-12m0-11.97v-12m0-11.97v-12m0-11.97v-12m0-11.97v-12m0-11.98v-12m0-11.97v-12m0-11.97V659.7m0-12v-11.97m0-12v-11.97m0-12V587.8m0-12v-11.98m0-12v-11.97m0-12V515.9m0-12v-11.97m0-11.98v-11.98m0-12v-11.97m0-12V420m0-12v-11.97m0-12v-11.97m0-12V348.1m0-12v-11.98m0-11.98v-12m0-11.97v-12m0-11.97v-12m0-11.97v-12m0-11.97v-12m0-11.97v-12m0-11.98v-12m0-11.97v-12m0-11.97v-12m0-11.97V84.43m0-11.98V60.46m0-12V36.5m0-11.98V12.52m0-12v-11.97m0-12V-35.4m0-12v-11.97m0-11.98v-11.98m0-12v-11.97m0-12v-11.97m0-12v-11.97m0-12v-11.97m0-12v-5.98h6.1" stroke="#00a4a6" stroke-width="3" fill="none"/><use xlink:href="#i" transform="matrix(1,0,0,1,240.51096215951532,-177.21896982859892) translate(259.5729166666667 21.52777777777778)"/><use xlink:href="#j" transform="matrix(1,0,0,1,240.51096215951532,-177.21896982859892) translate(265.8229166666667 21.52777777777778)"/><path d="M872.17-197.22h575.98v1102.6H872.17z" fill="#fff" fill-opacity="0"/><path d="M890.17-197.22h12m12 0h12m12 0h12m12 0h12m12 0h12m12 0h12m12 0h12m12 0h12m12 0h12m12 0h12m12 0h12m12 0h12m12 0h12m12 0h12m12 0h12m11.98 0h12m12 0h12m12 0h12m12 0h12m12 0h12m12 0h12m12 0h12m12 0h12m12 0h6v6m0 11.98v11.98m0 12v11.97m0 12v11.98m0 12v11.97m0 12v11.97m0 12v11.97m0 11.98v11.98m0 12V.52m0 12v11.97m0 11.98v12m0 11.98v11.98m0 11.98v12m0 11.97v11.98m0 11.98v12m0 11.97v12m0 11.97v12m0 11.97v12m0 11.97v12m0 11.97v12m0 11.98v12m0 11.97v12m0 11.97v12m0 11.97v11.97m0 12v11.97m0 12V408m0 12v11.98m0 12v11.97m0 12v11.97m0 12v11.97m0 11.98v11.98m0 12v11.97m0 12v11.97m0 12v11.97m0 12v11.97m0 12v11.97m0 12v11.98m0 12v11.97m0 11.98v12m0 11.97v12m0 11.97v12m0 11.97v12m0 11.97v12m0 11.98v12m0 11.97v12m0 11.97v12m0 11.97v5.98h-6m-12 0h-12m-12 0h-12m-12 0h-12m-12 0h-12m-12 0h-12m-12 0h-12m-12 0h-12m-12 0h-12m-12 0h-12m-12 0h-12m-12 0h-12m-12 0h-12m-12 0h-12m-12 0h-12m-12 0h-12m-12 0h-12m-12 0h-12m-12 0h-12m-11.98 0h-12m-12 0h-12m-12 0h-12m-12 0h-12m-12 0h-12m-12 0h-6v-6m0-11.97v-11.98m0-11.98v-12m0-11.97v-12m0-11.97v-12m0-11.97v-12m0-11.97v-12m0-11.97v-12m0-11.98v-12m0-11.97v-12m0-11.97V659.7m0-12v-11.97m0-12v-11.97m0-12V587.8m0-12v-11.98m0-12v-11.97m0-12V515.9m0-12v-11.97m0-11.98v-11.98m0-12v-11.97m0-12V420m0-12v-11.97m0-12v-11.97m0-12V348.1m0-12v-11.98m0-11.98v-12m0-11.97v-12m0-11.97v-12m0-11.97v-12m0-11.97v-12m0-11.97v-12m0-11.98v-12m0-11.97v-12m0-11.97v-12m0-11.97V84.43m0-11.98V60.46m0-12V36.5m0-11.98V12.52m0-12v-11.97m0-12V-35.4m0-12v-11.97m0-11.98v-11.98m0-12v-11.97m0-12v-11.97m0-12v-11.97m0-12v-11.97m0-12v-5.98h6" stroke="#00a4a6" stroke-width="3" fill="none"/><use xlink:href="#k" transform="matrix(1,0,0,1,872.1713695737458,-177.21896982859892) translate(0 20.666666666666668)"/><use xlink:href="#l" transform="matrix(1,0,0,1,872.1713695737458,-177.21896982859892) translate(204.00000000000003 20.666666666666668)"/><path d="M240.5-110.44h1207.65v338.77H240.5z" stroke="#7aa116" stroke-width="3" fill="#fff" fill-opacity="0"/><path d="M240.5-110.44h56v56h-56z" stroke="#fff" stroke-opacity="0" fill="#7aa116"/><path d="M283.9-88.26c-.16-.17-.35-.25-.57-.25h-5.15v-5.6c-.03-2.52-.96-4.7-2.84-6.4-1.9-1.82-4.15-2.74-6.77-2.74-2.65 0-4.9.83-6.8 2.62-1.9 1.7-2.87 3.87-2.9 6.4v5.67h-5.15c-.25 0-.44.08-.6.25-.15.16-.2.33-.2.58v25.3c0 .4.33.78.8.78h29.58c.47 0 .8-.37.8-.8V-87.7c0-.2-.05-.38-.2-.54zm-23.47-5.9c.03-2.13.8-3.88 2.37-5.3 1.62-1.5 3.53-2.2 5.74-2.2 2.22 0 4.12.75 5.7 2.25 1.54 1.4 2.32 3.2 2.32 5.3v5.6H260.4zm22.1 30.94H254.5v-23.7h28.02z" stroke="#fff" stroke-opacity="0" fill="#fff"/><path d="M267.7-73.13v6.24l1.6.02v-6.23c2.14-.4 3.63-2.2 3.64-4.37 0-2.43-1.97-4.4-4.4-4.42-2.2-.02-4.06 1.5-4.44 3.68-.4 2.4 1.2 4.7 3.6 5.1zm.83-7.16c.78 0 1.44.28 2 .84.54.55.82 1.2.8 2 .03 1.54-1.2 2.8-2.74 2.8-.03.02-.05.02-.07.02-1.56.1-2.92-1.05-3.04-2.62-.12-1.56 1.04-2.92 2.6-3.03h.43z" stroke="#fff" stroke-opacity="0" fill="#fff"/><use xlink:href="#m" transform="matrix(1,0,0,1,311.5109621595153,-90.43744902436106) translate(0 21.52777777777778)"/><use xlink:href="#n" transform="matrix(1,0,0,1,311.5109621595153,-90.43744902436106) translate(70.64887152777777 21.52777777777778)"/><path d="M240.5 227.85h1207.65v338.77H240.5z" stroke="#00a4a6" stroke-width="3" fill="#fff" fill-opacity="0"/><path d="M240.5 227.85h56v56h-56z" stroke="#fff" stroke-opacity="0" fill="#00a4a6"/><path d="M283.9 250.03c-.16-.17-.35-.25-.57-.25h-5.15v-5.58c-.03-2.53-.96-4.7-2.84-6.4-1.9-1.83-4.15-2.75-6.77-2.75-2.65 0-4.9.83-6.8 2.62-1.9 1.7-2.87 3.87-2.9 6.4v5.67h-5.15c-.25 0-.44.08-.6.25-.15.15-.2.32-.2.57v25.3c0 .4.33.78.8.78h29.58c.47 0 .8-.37.8-.8v-25.28c0-.2-.05-.38-.2-.54zm-23.47-5.9c.03-2.13.8-3.88 2.37-5.3 1.62-1.5 3.53-2.2 5.74-2.2 2.22 0 4.12.75 5.7 2.25 1.54 1.4 2.32 3.2 2.32 5.32v5.58H260.4zm22.1 30.94H254.5v-23.7h28.02z" stroke="#fff" stroke-opacity="0" fill="#fff"/><path d="M267.7 265.16v6.24h1.6v-6.22c2.14-.4 3.63-2.2 3.64-4.36 0-2.43-1.97-4.4-4.4-4.43-2.2-.03-4.06 1.5-4.44 3.67-.4 2.4 1.2 4.7 3.6 5.1zm.83-7.16c.78 0 1.44.27 2 .83.54.55.82 1.2.8 2 .03 1.54-1.2 2.8-2.74 2.8h-.07c-1.56.13-2.92-1.04-3.04-2.6-.12-1.56 1.04-2.92 2.6-3.03h.43z" stroke="#fff" stroke-opacity="0" fill="#fff"/><use xlink:href="#o" transform="matrix(1,0,0,1,311.51096215951543,247.85178435281057) translate(0 21.52777777777778)"/><use xlink:href="#n" transform="matrix(1,0,0,1,311.51096215951543,247.85178435281057) translate(79.40538194444444 21.52777777777778)"/><path d="M240.5 566.62h1207.65v338.76H240.5z" stroke="#00a4a6" stroke-width="3" fill="#fff" fill-opacity="0"/><path d="M240.5 566.62h56v56h-56z" stroke="#fff" stroke-opacity="0" fill="#00a4a6"/><path d="M283.9 588.8c-.16-.17-.35-.26-.57-.26h-5.15v-5.57c-.03-2.54-.96-4.7-2.84-6.4-1.9-1.84-4.15-2.75-6.77-2.75-2.65 0-4.9.83-6.8 2.62-1.9 1.7-2.87 3.87-2.9 6.4v5.66h-5.15c-.25 0-.44.1-.6.25-.15.17-.2.34-.2.58v25.3c0 .4.33.8.8.8h29.58c.47 0 .8-.4.8-.8v-25.3c0-.2-.05-.37-.2-.54zm-23.47-5.9c.03-2.13.8-3.88 2.37-5.3 1.62-1.5 3.53-2.2 5.74-2.2 2.22 0 4.12.75 5.7 2.25 1.54 1.4 2.32 3.2 2.32 5.32v5.57H260.4zm22.1 30.94H254.5v-23.72h28.02z" stroke="#fff" stroke-opacity="0" fill="#fff"/><path d="M267.7 603.93v6.24h1.6v-6.23c2.14-.4 3.63-2.2 3.64-4.35 0-2.44-1.97-4.42-4.4-4.44-2.2-.03-4.06 1.5-4.44 3.68-.4 2.4 1.2 4.68 3.6 5.1zm.83-7.16c.78 0 1.44.27 2 .82.54.55.82 1.2.8 2 .03 1.53-1.2 2.8-2.74 2.8h-.07c-1.56.13-2.92-1.04-3.04-2.6-.12-1.56 1.04-2.93 2.6-3.03.15-.02.28-.02.43 0z" stroke="#fff" stroke-opacity="0" fill="#fff"/><use xlink:href="#o" transform="matrix(1,0,0,1,311.51096215951554,586.6178314088482) translate(0 21.52777777777778)"/><use xlink:href="#n" transform="matrix(1,0,0,1,311.51096215951554,586.6178314088482) translate(79.40538194444444 21.52777777777778)"/><path d="M341.9 292.1h1041.9v248.55H341.9z" fill="#fff" fill-opacity="0"/><path d="M360.06 292.1h12.12m12.1 0h12.13m12.12 0h12.12m12.1 0h12.13m12.1 0h12.13m12.1 0h12.13m12.1 0h12.13m12.1 0h12.13m12.1 0h12.12m12.1 0h12.13m12.12 0h12.1m12.13 0h12.1m12.13 0h12.1m12.13 0h12.1m12.13 0h12.1m12.12 0h12.1m12.13 0h12.1m12.13 0h12.1m12.13 0h12.12m12.12 0h12.1m12.13 0h12.1m12.13 0H881m12.13 0h12.1m12.13 0h12.1m12.13 0h12.1m12.12 0h12.1m12.13 0h12.12m12.1 0h12.13m12.1 0h12.13m12.1 0h12.13m12.1 0h12.13m12.1 0h12.12m12.1 0h12.13m12.1 0h12.13m12.1 0h12.13m12.12 0h12.12m12.1 0h12.13m12.1 0h12.13m12.1 0h12.13m12.1 0h12.13m12.1 0h12.13m12.1 0h12.12m12.12 0h6.05v6.2m0 12.43v12.43m0 12.43V348m0 12.43v12.42m0 12.43v12.43m0 12.43v12.43m0 12.4v12.44m0 12.43v12.43m0 12.43v12.42m0 12.43V522m0 12.44v6.2h-6.07m-12.1 0h-12.13m-12.1 0h-12.13m-12.1 0h-12.13m-12.1 0h-12.13m-12.1 0h-12.12m-12.1 0h-12.13m-12.1 0h-12.13m-12.1 0h-12.13m-12.12 0h-12.12m-12.1 0h-12.13m-12.1 0h-12.13m-12.1 0h-12.13m-12.1 0h-12.13m-12.12 0h-12.1m-12.13 0h-12.12m-12.12 0h-12.1m-12.13 0h-12.1m-12.13 0h-12.1m-12.13 0h-12.1m-12.13 0h-12.1m-12.13 0h-12.1m-12.12 0h-12.1m-12.13 0h-12.1m-12.13 0h-12.1m-12.13 0h-12.12m-12.12 0h-12.1m-12.13 0h-12.1m-12.13 0h-12.1m-12.13 0h-12.1m-12.13 0h-12.12m-12.1 0h-12.13m-12.12 0h-12.12m-12.1 0h-12.13m-12.1 0H553.9m-12.1 0h-12.13m-12.1 0h-12.13m-12.1 0H481.2m-12.1 0h-12.12m-12.1 0h-12.13m-12.1 0H408.5m-12.1 0h-12.13m-12.12 0h-12.12m-12.1 0h-6.07v-6.2m0-12.43V509.6m0-12.43v-12.42m0-12.43v-12.43m0-12.43V435m0-12.4v-12.44m0-12.43V385.3m0-12.43v-12.43m0-12.42V335.6m0-12.44v-12.43m0-12.43v-6.2h6.05" stroke="#ed7100" stroke-width="3" fill="none"/><path d="M834.84 292.1h56v56h-56z" stroke="#fff" stroke-opacity="0" fill="#ed7100"/><path d="M854.52 315.82l-1.13 1.13 2.3 2.34h-12.86v1.6h12.87l-2.32 2.33 1.14 1.13 4.27-4.27-4.28-4.28zM882.84 319.3h-12.87l2.33-2.35-1.14-1.13-4.27 4.27 4.26 4.26 1.14-1.13-2.33-2.34h12.87v-1.6zM862.04 302.72v12.87h1.6V302.7l2.34 2.33 1.13-1.13-4.26-4.28-4.27 4.28 1.13 1.13 2.34-2.33zM863.64 337.46v-12.88h-1.6v12.88l-2.33-2.33-1.13 1.13 4.27 4.28 4.27-4.28-1.12-1.13-2.34 2.33z" stroke="#fff" stroke-opacity="0" fill="#fff"/><use xlink:href="#p" transform="matrix(1,0,0,1,341.8886307641957,363.0893960895902) translate(420.89149305555554 21.52777777777778)"/><use xlink:href="#q" transform="matrix(1,0,0,1,341.8886307641957,363.0893960895902) translate(475.99131944444446 21.52777777777778)"/><use xlink:href="#r" transform="matrix(1,0,0,1,341.8886307641957,363.0893960895902) translate(559.4114583333333 21.52777777777778)"/><path d="M422.76 433.48v-81.84h81.84v81.84h-81.84zm100.92-70.92v-5.4H510v-8.28c0-1.44-1.2-2.64-2.64-2.64h-8.28v-13.68h-5.4v13.68h-10.92v-13.68h-5.4v13.68h-10.92v-13.68h-5.52v13.68H450v-13.68h-5.4v13.68h-10.92v-13.68h-5.4v13.68H420c-1.44 0-2.64 1.2-2.64 2.64v8.28h-13.68v5.4h13.68v10.92h-13.68v5.4h13.68v10.92h-13.68v5.52h13.68v10.92h-13.68v5.4h13.68v10.92h-13.68v5.4h13.68v8.28c0 1.44 1.2 2.64 2.64 2.64h8.28v13.68h5.4v-13.68h10.92v13.68h5.4v-13.68h10.92v13.68h5.52v-13.68h10.92v13.68h5.4v-13.68h10.92v13.68h5.4v-13.68h8.28c1.44 0 2.64-1.2 2.64-2.64v-8.28h13.68v-5.4H510v-10.92h13.68v-5.4H510v-10.92h13.68v-5.52H510v-10.92h13.68v-5.4H510v-10.92h13.68z" stroke="#000" stroke-opacity="0" fill="#ed7100"/><use xlink:href="#s" transform="matrix(1,0,0,1,373.6803271018802,461.5555694016342) translate(46.95529513888889 21.52777777777778)"/><path d="M1071.76 433.48v-81.84h81.84v81.84h-81.84zm100.92-70.92v-5.4H1159v-8.28c0-1.44-1.2-2.64-2.64-2.64h-8.28v-13.68h-5.4v13.68h-10.92v-13.68h-5.4v13.68h-10.92v-13.68h-5.52v13.68H1099v-13.68h-5.4v13.68h-10.92v-13.68h-5.4v13.68H1069c-1.44 0-2.64 1.2-2.64 2.64v8.28h-13.68v5.4h13.68v10.92h-13.68v5.4h13.68v10.92h-13.68v5.52h13.68v10.92h-13.68v5.4h13.68v10.92h-13.68v5.4h13.68v8.28c0 1.44 1.2 2.64 2.64 2.64h8.28v13.68h5.4v-13.68h10.92v13.68h5.4v-13.68h10.92v13.68h5.52v-13.68h10.92v13.68h5.4v-13.68h10.92v13.68h5.4v-13.68h8.28c1.44 0 2.64-1.2 2.64-2.64v-8.28h13.68v-5.4H1159v-10.92h13.68v-5.4H1159v-10.92h13.68v-5.52H1159v-10.92h13.68v-5.4H1159v-10.92h13.68z" stroke="#000" stroke-opacity="0" fill="#ed7100"/><use xlink:href="#s" transform="matrix(1,0,0,1,1022.6759123796446,461.5555694016342) translate(46.95529513888889 21.52777777777778)"/><path d="M591.53 433.48v-81.84h81.84v81.84h-81.84zm100.92-70.92v-5.4h-13.68v-8.28c0-1.44-1.2-2.64-2.64-2.64h-8.28v-13.68h-5.4v13.68h-10.92v-13.68h-5.4v13.68H635.2v-13.68h-5.5v13.68h-10.93v-13.68h-5.4v13.68h-10.92v-13.68h-5.4v13.68h-8.28c-1.44 0-2.64 1.2-2.64 2.64v8.28h-13.68v5.4h13.68v10.92h-13.68v5.4h13.68v10.92h-13.68v5.52h13.68v10.92h-13.68v5.4h13.68v10.92h-13.68v5.4h13.68v8.28c0 1.44 1.2 2.64 2.64 2.64h8.28v13.68h5.4v-13.68h10.92v13.68h5.4v-13.68h10.92v13.68h5.5v-13.68h10.93v13.68h5.4v-13.68h10.92v13.68h5.4v-13.68h8.28c1.44 0 2.64-1.2 2.64-2.64v-8.28h13.68v-5.4h-13.68v-10.92h13.68v-5.4h-13.68v-10.92h13.68v-5.52h-13.68v-10.92h13.68v-5.4h-13.68v-10.92h13.68z" stroke="#000" stroke-opacity="0" fill="#ed7100"/><use xlink:href="#s" transform="matrix(1,0,0,1,542.4487149411087,461.5555694016342) translate(46.95529513888889 21.52777777777778)"/><path d="M1242.7 433.48v-81.84h81.83v81.84h-81.84zm100.9-70.92v-5.4h-13.67v-8.28c0-1.44-1.2-2.64-2.64-2.64h-8.3v-13.68h-5.4v13.68h-10.9v-13.68h-5.4v13.68h-10.93v-13.68h-5.52v13.68h-10.92v-13.68h-5.4v13.68h-10.92v-13.68h-5.4v13.68h-8.27c-1.44 0-2.64 1.2-2.64 2.64v8.28h-13.7v5.4h13.7v10.92h-13.7v5.4h13.7v10.92h-13.7v5.52h13.7v10.92h-13.7v5.4h13.7v10.92h-13.7v5.4h13.7v8.28c0 1.44 1.2 2.64 2.63 2.64h8.28v13.68h5.4v-13.68h10.93v13.68h5.4v-13.68h10.92v13.68h5.52v-13.68h10.92v13.68h5.4v-13.68h10.9v13.68h5.4v-13.68h8.3c1.43 0 2.63-1.2 2.63-2.64v-8.28h13.68v-5.4h-13.67v-10.92h13.68v-5.4h-13.67v-10.92h13.68v-5.52h-13.67v-10.92h13.68v-5.4h-13.67v-10.92h13.68z" stroke="#000" stroke-opacity="0" fill="#ed7100"/><use xlink:href="#s" transform="matrix(1,0,0,1,1193.6079974988634,461.5555694016342) translate(46.95529513888889 21.52777777777778)"/><path d="M430.26 42.74V36.2l4.13 3.32-4.14 3.22zm-.8-13.1c-.7-.5-1.72-.6-2.42-.2-.8.3-1.3 1.12-1.3 2.03v16c0 .9.5 1.72 1.3 2.12.3.1.6.2.9.2.6 0 1.1-.2 1.5-.5l9.98-8.07c.5-.4.9-1 .9-1.7 0-.72-.4-1.42-.9-1.82l-9.97-8.05zm54.87-7.74v-8.96l4.53 4.53-4.53 4.43zm9.36-6.04L483.6 5.8c-.6-.6-1.6-.8-2.4-.5-.92.4-1.42 1.2-1.42 2.1v7.75h-17.52V-6.58c0-1.2-1-2.2-2.22-2.2h-17.62v4.52h15.3v19.43h-15.7v4.64h15.7V39.2h-15.3v4.53h17.62c1.2 0 2.22-1 2.22-2.22V19.8h17.52v7.64c0 1 .5 1.8 1.4 2.1.3.2.5.2.8.2.62 0 1.22-.2 1.62-.7l10.07-9.96c.9-.9.9-2.3 0-3.22zm-63.44 4.83v-6.45l4.13 3.22-4.14 3.22zm-.8-13c-.7-.6-1.72-.7-2.42-.3-.8.4-1.3 1.2-1.3 2.02v16c0 .9.5 1.72 1.3 2.12.3.1.6.2.9.2.6 0 1.1-.2 1.5-.5l9.98-7.96c.5-.5.9-1.1.9-1.8s-.4-1.42-.9-1.82l-9.97-7.96zm.8-10.97V-9.8l4.13 3.2-4.14 3.33zm-.8-13.1c-.7-.6-1.72-.7-2.42-.3-.8.4-1.3 1.22-1.3 2.12v16c0 .92.5 1.62 1.3 2.03.3.2.6.3.9.3.6 0 1.1-.2 1.5-.5l9.98-8.06c.5-.4.9-1.1.9-1.8 0-.72-.4-1.32-.9-1.72l-9.97-8.06zM454 61.28c-25.27 0-45.8-20.54-45.8-45.8 0-25.28 20.53-45.82 45.8-45.82 25.27 0 45.8 20.54 45.8 45.8 0 25.28-20.53 45.82-45.8 45.82zm0-96.15c-27.8 0-50.34 22.55-50.34 50.34 0 27.78 22.55 50.34 50.34 50.34 27.8 0 50.34-22.55 50.34-50.34 0-27.8-22.55-50.34-50.34-50.34z" stroke="#000" stroke-opacity="0" fill="#8c4fff"/><use xlink:href="#t" transform="matrix(1,0,0,1,373.6803271018802,74.79835913833358) translate(10.838541666666671 21.52777777777778)"/><use xlink:href="#u" transform="matrix(1,0,0,1,373.6803271018802,74.79835913833358) translate(61.61979166666667 21.52777777777778)"/><path d="M896.28-296.17h-4.08v-48.36c0-1.08-.72-2.04-1.68-2.52l-.24-.12c-5.52-2.4-11.16-5.04-19.32-5.04-8.52 0-14.76 2.75-21 5.87-.96.48-1.56 1.44-1.56 2.4v47.76h-3.96v-51.6c6.72-5.4 16.32-8.52 26.52-8.52 9.6 0 18.72 2.77 25.32 7.57v52.56zm-25.32-65.52c-12 0-23.4 3.85-31.08 10.57-.6.6-.84 1.32-.84 2.04v55.57c0 1.56 1.2 2.76 2.64 2.76h9.48c1.56 0 2.76-1.2 2.76-2.76v-48.72c5.28-2.52 10.32-4.44 17.04-4.44 6.36 0 11.04 1.8 15.72 3.97v49.2c0 1.56 1.2 2.76 2.76 2.76h9.6c1.44 0 2.64-1.2 2.64-2.76v-56.64c0-.72-.36-1.56-.96-2.04-7.56-6.13-18.48-9.5-29.76-9.5zm-.6 89.3c-30.12 0-54.48-24.37-54.48-54.5 0-30.1 24.36-54.47 54.48-54.47 30.12 0 54.48 24.36 54.48 54.48 0 30.13-24.36 54.5-54.48 54.5zm0-114.5c-33.12 0-60 26.9-60 60 0 33.13 26.88 60 60 60 33.12 0 60-26.87 60-60 0-33.1-26.88-60-60-60zM896.76 34.12v-6.48h6.48v6.48h-6.48zm-18.84 0v-6.48h6.36v6.48h-6.36zm-21.48 0v-6.48h6.48v6.48h-6.48zm-18.96 0v-6.48h6.24v6.48h-6.24zm16.56-47.76V-29.6h32.64v15.96h-32.64zm51.84 35.76h-4.2V13c0-1.56-1.2-2.76-2.64-2.76h-6.84V1c0-1.44-1.2-2.64-2.76-2.64h-16.32v-6.48h16.32c1.56 0 2.76-1.32 2.76-2.76v-21.48c0-1.56-1.2-2.76-2.76-2.76h-38.16c-1.56 0-2.76 1.2-2.76 2.76v21.48c0 1.44 1.2 2.76 2.76 2.76h16.32v6.48h-16.32c-1.56 0-2.76 1.2-2.76 2.64v9.24h-6.84c-1.44 0-2.64 1.2-2.64 2.76v9.12h-4.2c-1.56 0-2.76 1.32-2.76 2.76v12c0 1.44 1.2 2.64 2.76 2.64h11.64c1.56 0 2.76-1.2 2.76-2.64v-12c0-1.44-1.2-2.76-2.76-2.76h-2.04v-6.48h11.28v6.48h-2.04c-1.56 0-2.76 1.32-2.76 2.76v12c0 1.44 1.2 2.64 2.76 2.64h11.88c1.56 0 2.76-1.2 2.76-2.64v-12c0-1.44-1.2-2.76-2.76-2.76h-4.44V13c0-1.56-1.2-2.76-2.64-2.76h-4.44V3.76h32.64v6.48h-4.44c-1.44 0-2.64 1.2-2.64 2.76v9.12h-4.44c-1.56 0-2.76 1.32-2.76 2.76v12c0 1.44 1.2 2.64 2.76 2.64h11.88c1.56 0 2.76-1.2 2.76-2.64v-12c0-1.44-1.2-2.76-2.76-2.76H885v-6.48h11.28v6.48H894c-1.44 0-2.64 1.32-2.64 2.76v12c0 1.44 1.2 2.64 2.64 2.64h11.88c1.56 0 2.76-1.2 2.76-2.64v-12c0-1.44-1.2-2.76-2.76-2.76zM870.36 60.4c-30.12 0-54.6-24.48-54.6-54.6s24.48-54.6 54.6-54.6 54.6 24.48 54.6 54.6-24.48 54.6-54.6 54.6zm0-114.6c-33.12 0-60 26.88-60 60 0 33.12 26.88 60 60 60 33.12 0 60-26.88 60-60 0-33.12-26.88-60-60-60z" stroke="#000" stroke-opacity="0" fill="#8c4fff"/><path d="M1114.52 676h120v120h-120z" stroke="#000" stroke-opacity="0" fill="#c925d1"/><path d="M1137.65 697.02l13.94 13.95-2.1 2.1-13.95-13.95v11.35h-3.03V695.5c0-.83.68-1.5 1.52-1.5H1149v3.02h-11.35zm78.87-1.5v14.95h-3.02V699.1l-13.94 13.95-2.1-2.1 13.94-13.95h-11.34V694H1215c.85 0 1.52.67 1.52 1.5zm-3.02 66.02h3.02v14.95c0 .83-.67 1.5-1.5 1.5h-14.96v-3.02h11.34l-13.94-13.95 2.1-2.1 13.94 13.95v-11.34zm-.76-26.7c0-4.97-5.7-9.93-15.37-13.2l1-2.86c11 3.78 17.4 9.66 17.4 16.05 0 6.38-6.4 12.26-17.4 15.95l-1-2.77c9.66-3.26 15.37-8.22 15.37-13.17zm-76.35 0c0 4.77 5.36 9.56 14.35 12.75l-1 2.85c-10.42-3.78-16.4-9.4-16.4-15.63 0-6.2 5.98-11.84 16.4-15.62l1 2.77c-9 3.28-14.36 8.07-14.36 12.86zm15.2 26.2l-13.95 13.94H1149V778h-14.96c-.84 0-1.52-.67-1.52-1.5v-14.96h3.03v11.34l13.94-13.95 2.1 2.1zm22.92-38.14c-10.75 0-16.46-2.77-16.46-3.87 0-1.17 5.7-3.86 16.46-3.86 10.76 0 16.47 2.7 16.47 3.86 0 1.1-5.72 3.87-16.48 3.87zm.1 11.67c-10.34 0-16.56-2.85-16.56-4.37v-7.3c3.7 2.1 10.25 3.02 16.46 3.02 6.22 0 12.77-.92 16.47-3.02v7.3c0 1.52-6.23 4.37-16.4 4.37zm0 11.43c-10.34 0-16.56-2.77-16.56-4.3v-7.38c3.6 2.1 10.08 3.2 16.55 3.2 6.4 0 12.78-1.1 16.4-3.2v7.4c0 1.5-6.23 4.28-16.4 4.28zm-.1 10.25c-10.66 0-16.46-2.86-16.46-4.3v-6.2c3.6 2.18 10.08 3.27 16.55 3.27 6.4 0 12.78-1.1 16.4-3.27v6.2c0 1.44-5.8 4.3-16.48 4.3zm0-44.1c-9.4 0-19.48 2.18-19.48 6.88v32.93c0 4.8 9.82 7.3 19.48 7.3s19.5-2.5 19.5-7.3v-32.93c0-4.7-10.1-6.88-19.5-6.88z" stroke="#000" stroke-opacity="0" fill="#fff"/><use xlink:href="#v" transform="matrix(1,0,0,1,1084.524168771286,805.0008549368671) translate(32.88194444444444 21.52777777777778)"/><use xlink:href="#w" transform="matrix(1,0,0,1,1084.524168771286,805.0008549368671) translate(83.72829861111111 21.52777777777778)"/><use xlink:href="#x" transform="matrix(1,0,0,1,1084.524168771286,805.0008549368671) translate(49.57573784722222 53.79340277777778)"/><path d="M489.25 676h120v120h-120z" stroke="#000" stroke-opacity="0" fill="#c925d1"/><path d="M512.38 697.02l13.94 13.95-2.1 2.1-13.94-13.95v11.35h-3.03V695.5c0-.83.68-1.5 1.52-1.5h14.95v3.02h-11.34zm78.87-1.5v14.95h-3.02V699.1l-13.94 13.95-2.1-2.1 13.93-13.95H574.8V694h14.94c.84 0 1.5.67 1.5 1.5zm-3.02 66.02h3.02v14.95c0 .83-.67 1.5-1.5 1.5h-14.96v-3.02h11.33l-13.94-13.95 2.1-2.1 13.93 13.95v-11.34zm-.76-26.7c0-4.97-5.7-9.93-15.37-13.2l1-2.86c11 3.78 17.4 9.66 17.4 16.05 0 6.38-6.4 12.26-17.4 15.95l-1-2.77c9.66-3.26 15.37-8.22 15.37-13.17zm-76.35 0c0 4.77 5.37 9.56 14.36 12.75l-1 2.85c-10.42-3.78-16.4-9.4-16.4-15.63 0-6.2 5.98-11.84 16.4-15.62l1 2.77c-9 3.28-14.36 8.07-14.36 12.86zm15.2 26.2l-13.94 13.94h11.34V778h-14.95c-.84 0-1.52-.67-1.52-1.5v-14.96h3.03v11.34l13.94-13.95 2.1 2.1zm22.93-38.14c-10.75 0-16.46-2.77-16.46-3.87 0-1.17 5.7-3.86 16.45-3.86 10.76 0 16.47 2.7 16.47 3.86 0 1.1-5.7 3.87-16.47 3.87zm.1 11.67c-10.34 0-16.56-2.85-16.56-4.37v-7.3c3.7 2.1 10.24 3.02 16.45 3.02 6.22 0 12.77-.92 16.47-3.02v7.3c0 1.52-6.22 4.37-16.38 4.37zm0 11.43c-10.34 0-16.56-2.77-16.56-4.3v-7.38c3.6 2.1 10.07 3.2 16.54 3.2 6.38 0 12.77-1.1 16.38-3.2v7.4c0 1.5-6.22 4.28-16.38 4.28zm-.1 10.25c-10.66 0-16.46-2.86-16.46-4.3v-6.2c3.6 2.18 10.07 3.27 16.54 3.27 6.38 0 12.77-1.1 16.38-3.27v6.2c0 1.44-5.8 4.3-16.47 4.3zm0-44.1c-9.4 0-19.48 2.18-19.48 6.88v32.93c0 4.8 9.82 7.3 19.48 7.3s19.5-2.5 19.5-7.3v-32.93c0-4.7-10.1-6.88-19.5-6.88z" stroke="#000" stroke-opacity="0" fill="#fff"/><use xlink:href="#y" transform="matrix(1,0,0,1,459.25440154868807,805.0008549368671) translate(46.74370659722222 21.52777777777778)"/><path d="M378.82 17.93H306.5l-.66.05-.54.13-.5.22-.48.3-.42.35-.36.42-.3.46-.2.5-.13.55-.04.65v388.72l.06.65.12.54.2.5.3.48.36.42.42.36.47.28.5.22.54.13.65.05h31.4v4.95h-31.6l-1.24-.1-1.3-.3-1.22-.52-1.14-.7-1-.86-.87-1-.7-1.15-.5-1.23-.32-1.3-.1-1.23V21.37l.1-1.24.32-1.3.5-1.22.7-1.13.87-1 1-.88 1.14-.7 1.23-.5 1.3-.32 1.22-.1h72.52z" stroke="#3a414a" stroke-width=".05" fill="#3a414a"/><path d="M340.4 418.85h-2.57v-4.95h2.56z" fill="#3a414a"/><path stroke="#3a414a" stroke-width=".05" fill="#3a414a"/><path d="M395.6 15.46L381.3 20.1V10.8z" fill="#3a414a"/><path d="M403.6 15.46l-24.75 8.04V7.4zm-19.8 1.23l3.78-1.24-3.78-1.23z" stroke="#3a414a" stroke-width=".05" fill="#3a414a"/><path d="M506.36 15.46h145a6 6 0 0 0 6-6V-320.9a6 6 0 0 1 6-6h124.26" stroke="#3a414a" stroke-width="4" fill="none"/><path d="M506.4 17.43h-2.12l.08-1.97-.1-1.98h2.15z" stroke="#3a414a" stroke-width=".05" fill="#3a414a"/><path d="M803.9-326.9l-14.28 4.64v-9.27z" stroke="#3a414a" stroke-width="4" fill="#3a414a"/><path d="M870.36-56.2v-187.95" stroke="#3a414a" stroke-width="4" fill="none"/><path d="M872.34-54.13l-1.98-.07-1.97.08v-2.13h3.94z" stroke="#3a414a" stroke-width=".05" fill="#3a414a"/><path d="M870.36-260.42l4.64 14.27h-9.27z" stroke="#3a414a" stroke-width="4" fill="#3a414a"/><path d="M809.36 5.8H738.6a6 6 0 0 0-6 6v260.3" stroke="#3a414a" stroke-width="2" fill="none"/><path d="M810.36 5.8l.04.97h-1.06V4.82h1.06z" stroke="#3a414a" stroke-width=".05" fill="#3a414a"/><path d="M732.6 287.35l-4.63-14.26h9.27z" stroke="#3a414a" stroke-width="2" fill="#3a414a"/><path d="M931.36 5.8h83.76a6 6 0 0 1 6 6v260.3" stroke="#3a414a" stroke-width="2" fill="none"/><path d="M931.4 6.77h-1.07l.03-.97-.04-.98h1.07z" stroke="#3a414a" stroke-width=".05" fill="#3a414a"/><path d="M1021.12 287.35l-4.64-14.26h9.27z" stroke="#3a414a" stroke-width="2" fill="#3a414a"/><path d="M-318.44 491.26V480.3H-202v10.96h-116.44zm55.54 16.8h5.36v-5.6h-5.36v5.6zm60.9-38.96h-116.44v-66.26h33.37v-11.2h-38.73c-3.17 0-5.6 2.43-5.6 5.6v99.63c0 3.16 2.43 5.6 5.6 5.6h49.7v5.6h-22.17v10.96h72.1v-10.96h-22.17v-5.6h49.7c3.16 0 5.6-2.44 5.6-5.6v-33.13H-202v5.36zm10.96-165.9h11.2V292h-11.2v11.2zm0 33.14h11.2v-10.97h-11.2v10.97zm-5.6-27.77V286.4h99.87v22.17h-99.87zm105.23-33.13H-202c-3.17 0-5.6 2.43-5.6 5.6v49.7h10.96v-10.97h99.87v22.17h-83.07v10.96h83.07v22.17h-38.98v11.2h44.34c3.16 0 5.6-2.68 5.6-5.6v-99.63c0-3.17-2.44-5.6-5.6-5.6zm-58.23 166.13l-96.95-.24c-10.72 0-21.2-8.77-22.17-18.76 0-.98-.24-1.95-.24-2.92 0-14.62 10-19.5 16.33-21.2h.5c2.42-.73 4.13-3.4 3.88-6.1-.23-1.2-.23-2.67-.23-3.9 0-12.16 8.53-25.56 19-29.95 18.76-8.04 31.9 2.44 36.78 7.3 3.9 3.9 7.07 9.02 9.26 15.1.74 1.96 2.45 3.42 4.4 3.67 1.94.24 3.9-.5 5.1-2.2 2.7-3.65 7.07-5.1 10.97-3.9 4.87 1.47 8.04 6.58 8.53 13.65-.25 2.92 1.7 5.36 4.63 5.85 6.1 1.2 19.73 5.35 19.73 21.92 0 19.23-17.8 21.43-19.5 21.67zm5.85-53.6c-1.7-10.22-7.56-17.77-16.32-20.2-5.6-1.72-11.2-.74-16.08 2.18-2.44-4.63-5.36-8.52-8.77-11.93-13.4-13.4-31.67-17.06-48.72-9.75-14.86 6.34-26.07 23.4-26.07 40.2v.73c-12.66 4.87-20.2 16.07-20.2 30.45 0 1.46 0 2.68.23 4.14 1.45 15.58 16.8 28.73 33.12 28.73h97.44c10.47-.73 30.2-8.77 30.2-32.64 0-18.52-12.18-28.27-24.84-31.92z" stroke="#000" stroke-opacity="0" fill="#e7157b"/><g><use xlink:href="#z" transform="matrix(1,0,0,1,-359.40401250131293,528.0331199976291) translate(61.06575520833334 21.52777777777778)"/><use xlink:href="#A" transform="matrix(1,0,0,1,-359.40401250131293,528.0331199976291) translate(149.82443576388889 21.52777777777778)"/></g><path d="M-380.65 572.62a6 6 0 0 1 6-6h322.9a6 6 0 0 1 6 6v194.3a6 6 0 0 1-6 6h-322.9a6 6 0 0 1-6-6z" stroke="#000" stroke-width="2" fill="#fff"/><g><use xlink:href="#B" transform="matrix(1,0,0,1,-375.65122336692747,571.6178314088482) translate(42.77886284722223 89.24652777777777)"/><use xlink:href="#C" transform="matrix(1,0,0,1,-375.65122336692747,571.6178314088482) translate(97.61827256944446 89.24652777777777)"/><use xlink:href="#D" transform="matrix(1,0,0,1,-375.65122336692747,571.6178314088482) translate(146.26193576388889 89.24652777777777)"/><use xlink:href="#E" transform="matrix(1,0,0,1,-375.65122336692747,571.6178314088482) translate(37.744140625 121.51215277777777)"/><use xlink:href="#F" transform="matrix(1,0,0,1,-375.65122336692747,571.6178314088482) translate(69.04839409722223 121.51215277777777)"/><use xlink:href="#G" transform="matrix(1,0,0,1,-375.65122336692747,571.6178314088482) translate(129.6169704861111 121.51215277777777)"/><use xlink:href="#H" transform="matrix(1,0,0,1,-375.65122336692747,571.6178314088482) translate(156.24457465277777 121.51215277777777)"/><use xlink:href="#I" transform="matrix(1,0,0,1,-375.65122336692747,571.6178314088482) translate(215.14214409722223 121.51215277777777)"/><use xlink:href="#J" transform="matrix(1,0,0,1,-375.65122336692747,571.6178314088482) translate(250.65646701388889 121.51215277777777)"/></g><path d="M1907.5 309.67h165.78v165.78h-165.8z" stroke="#000" stroke-opacity="0" fill="#7aa116"/><path d="M2033.54 398.6l.78-5.7c7.36 4.4 7.47 6.27 7.47 6.27s-1.35 1.04-8.26-.58zm-4.02-1.17c-12.72-3.83-30.35-11.95-37.5-15.32v-.1c0-2.67-2.22-5-5-5-2.8 0-5.03 2.33-5.03 5 0 2.78 2.22 5 5 5 1.24 0 2.36-.48 3.14-1.18 8.47 3.95 26 11.96 38.82 15.8l-5.13 35.6v.36c0 3.13-13.95 8.82-36.6 8.82-22.98 0-37.04-5.7-37.04-8.82v-.35l-10.6-77.05c9.14 6.26 28.78 9.63 47.63 9.63 18.75 0 38.4-3.36 47.53-9.62l-5.24 37.25zm-91.04-45.38c.22-2.66 15.84-13.34 48.75-13.34 32.92 0 48.54 10.7 48.76 13.36v.92c-1.9 6.15-22.2 12.65-48.77 12.65-26.66 0-46.97-6.5-48.75-12.65v-.93zm101.64.12c0-7.2-20.64-17.64-52.88-17.64-32.25 0-52.9 10.45-52.9 17.64l.23 1.5 11.5 84.03c.22 9.4 25.32 12.88 41.16 12.88 19.64 0 40.5-4.53 40.73-12.88l5.02-35.05c2.8.7 5.02 1.05 6.8 1.05 2.46 0 4.13-.58 5.14-1.86.9-.93 1.1-2.1.9-3.37-.46-2.9-3.9-6.03-10.83-9.98l4.9-34.7.22-1.63z" stroke="#000" stroke-opacity="0" fill="#fff"/><g><use xlink:href="#K" transform="matrix(1,0,0,1,1877.4944011020352,484.4459506335491) translate(-2.921875 29.6875)"/><use xlink:href="#L" transform="matrix(1,0,0,1,1877.4944011020352,484.4459506335491) translate(68.5 74.6875)"/></g><path d="M870.67 542.2V730a6 6 0 0 0 6 6h213" stroke="#3a414a" stroke-width="5" fill="none"/><path d="M870.67 542.26h-2.47v-5.56h2.47z" stroke="#3a414a" stroke-width=".05" fill="#3a414a"/><path d="M1106.43 736l-14.26 4.64v-9.27z" stroke="#3a414a" stroke-width="5" fill="#3a414a"/><path d="M1387.3 392.56h497.46" stroke="#3a414a" stroke-width="4" fill="none"/><path d="M1387.34 394.53h-2.05v-3.95h2.04z" stroke="#3a414a" stroke-width=".05" fill="#3a414a"/><path d="M1901.02 392.56l-14.26 4.63v-9.28z" stroke="#3a414a" stroke-width="4" fill="#3a414a"/><path d="M882.96-743.24c0-8.04 6.6-14.52 14.76-14.52 8.04 0 14.64 6.48 14.64 14.52 0 7.92-6.6 14.4-14.64 14.4-8.16 0-14.76-6.48-14.76-14.4zm31.44 19.2c-1.68-1.08-3.6-2.04-5.52-2.76 5.4-3.6 8.88-9.6 8.88-16.44 0-11.04-9-19.92-20.04-19.92-11.16 0-20.16 8.88-20.16 19.92 0 6.84 3.48 12.84 8.88 16.44-3.48 1.32-6.72 3.24-9.72 5.76l3.6 4.08c4.92-4.2 11.04-6.48 17.28-6.48 4.92 0 9.72 1.44 13.92 3.96 7.56 4.68 12.48 12.84 13.2 21.72H897.6v5.52h30c1.56 0 2.76-1.2 2.76-2.76 0-11.88-6.12-22.92-15.96-29.04zm-85.92-19.2c0-8.04 6.6-14.52 14.64-14.52 8.16 0 14.64 6.48 14.64 14.52 0 7.92-6.48 14.4-14.64 14.4-8.04 0-14.64-6.48-14.64-14.4zm14.64 45.48H816c1.32-14.4 12.96-25.68 27.12-25.68 4.92 0 9.72 1.44 13.92 3.96 1.2.84 2.28 1.56 3.36 2.52l3.6-4.08c-1.32-1.2-2.64-2.16-4.08-3-1.8-1.08-3.6-2.04-5.52-2.76 5.28-3.6 8.88-9.6 8.88-16.44 0-11.04-9-19.92-20.16-19.92-11.04 0-20.16 8.88-20.16 19.92 0 6.84 3.6 12.84 9 16.44-12.6 4.8-21.6 17.16-21.6 31.8 0 1.56 1.2 2.76 2.76 2.76h30v-5.52zm.12 49.2c1.32-14.52 12.96-25.8 27.12-25.8 4.92 0 9.72 1.44 13.92 3.96 7.44 4.68 12.36 12.84 13.2 21.84h-54.24zm12.48-45.6c0-8.04 6.6-14.4 14.64-14.4 8.16 0 14.76 6.36 14.76 14.4 0 7.92-6.6 14.4-14.76 14.4-8.04 0-14.64-6.48-14.64-14.4zm31.44 19.2c-1.8-1.08-3.6-2.04-5.52-2.76 5.4-3.6 8.88-9.6 8.88-16.44 0-11.04-9-19.92-20.16-19.92-11.04 0-20.04 8.88-20.04 19.92 0 6.84 3.48 12.84 8.88 16.44-12.6 4.8-21.6 17.16-21.6 31.8 0 1.56 1.2 2.76 2.76 2.76h60c1.56 0 2.76-1.2 2.76-2.76 0-11.76-6.12-22.92-15.96-29.04z" stroke="#000" stroke-opacity="0" fill="#232f3e"/><g><use xlink:href="#M" transform="matrix(1,0,0,1,780.361149400354,-634.1559825481921) translate(59.34136284722223 21.52777777777778)"/></g><defs><path d="M600 0L52-1490h200c166 485 304 806 458 1336 156-533 285-846 449-1336h202L819 0H600" id="N"/><path d="M158 0v-1118h180V0H158zm91-1301c-68 0-125-53-125-119s57-119 125-119c69 0 126 53 126 119s-57 119-126 119" id="O"/><path d="M158 0v-1118h174v172h12c41-113 157-188 290-188 26 0 70 2 91 3v181c-11-2-60-10-108-10-161 0-279 109-279 260V0H158" id="P"/><path d="M598-1118v154H368v674c0 100 37 144 132 144 23 0 62-6 92-12L629-6c-37 13-88 20-134 20-193 0-307-107-307-290v-688H20v-154h168v-266h180v266h230" id="Q"/><path d="M537 14c-226 0-379-139-379-422v-710h180v695c0 172 97 275 253 275 160 0 281-109 281-300v-670h181V0H879v-209C806-46 684 14 537 14" id="R"/><path d="M471 26C259 26 90-98 90-318c0-256 228-303 435-329 202-27 287-16 287-108 0-139-79-219-234-219-161 0-248 86-283 164l-173-57c86-203 278-265 451-265 150 0 419 46 419 395V0H815v-152h-12C765-73 660 26 471 26zm31-159c199 0 310-134 310-271v-155c-30 35-226 55-295 64-131 17-246 59-246 186 0 116 97 176 231 176" id="S"/><path d="M338-1490V0H158v-1490h180" id="T"/><g id="a"><use transform="matrix(0.010850694444444444,0,0,0.010850694444444444,0,0)" xlink:href="#N"/><use transform="matrix(0.010850694444444444,0,0,0.010850694444444444,15.33203125,0)" xlink:href="#O"/><use transform="matrix(0.010850694444444444,0,0,0.010850694444444444,20.713975694444443,0)" xlink:href="#P"/><use transform="matrix(0.010850694444444444,0,0,0.010850694444444444,29.42708333333333,0)" xlink:href="#Q"/><use transform="matrix(0.010850694444444444,0,0,0.010850694444444444,36.69704861111111,0)" xlink:href="#R"/><use transform="matrix(0.010850694444444444,0,0,0.010850694444444444,49.83723958333333,0)" xlink:href="#S"/><use transform="matrix(0.010850694444444444,0,0,0.010850694444444444,62.31553819444444,0)" xlink:href="#T"/></g><path d="M158 418v-1536h174v179h20c37-59 106-193 324-193 279 0 474 222 474 576 0 356-194 580-473 580-213 0-288-135-325-197h-14v591H158zm492-555c209 0 317-186 317-421 0-232-105-413-317-413-206 0-314 166-314 413 0 249 111 421 314 421" id="U"/><path d="M481 0L54-1118h197c107 314 236 620 325 951 87-331 217-637 324-951h197L670 0H481" id="V"/><path d="M628 24c-324 0-524-230-524-574 0-343 198-582 503-582 237 0 487 146 487 559v75H286c9 234 145 362 343 362 132 0 231-58 273-172l174 48C1024-91 857 24 628 24zM287-650h624c-17-190-120-322-304-322-192 0-309 151-320 322" id="W"/><g id="b"><use transform="matrix(0.010850694444444444,0,0,0.010850694444444444,0,0)" xlink:href="#U"/><use transform="matrix(0.010850694444444444,0,0,0.010850694444444444,13.606770833333332,0)" xlink:href="#P"/><use transform="matrix(0.010850694444444444,0,0,0.010850694444444444,22.31987847222222,0)" xlink:href="#O"/><use transform="matrix(0.010850694444444444,0,0,0.010850694444444444,27.701822916666664,0)" xlink:href="#V"/><use transform="matrix(0.010850694444444444,0,0,0.010850694444444444,40.08246527777778,0)" xlink:href="#S"/><use transform="matrix(0.010850694444444444,0,0,0.010850694444444444,52.560763888888886,0)" xlink:href="#Q"/><use transform="matrix(0.010850694444444444,0,0,0.010850694444444444,59.61371527777778,0)" xlink:href="#W"/></g><path d="M613 24c-304 0-509-231-509-576 0-350 205-580 509-580 216 0 392 114 453 309l-173 49c-33-115-133-197-280-197-223 0-326 196-326 419 0 220 103 415 326 415 150 0 252-85 285-206l172 49C1010-95 832 24 613 24" id="X"/><path d="M613 24c-304 0-509-231-509-576 0-350 205-580 509-580 305 0 511 230 511 580 0 345-206 576-511 576zm0-161c226 0 329-195 329-415 0-222-103-419-329-419-223 0-326 196-326 419 0 220 103 415 326 415" id="Y"/><path d="M577 24c-279 0-473-224-473-580 0-354 195-576 474-576 218 0 287 134 324 193h14v-551h180V0H922v-173h-20C865-111 790 24 577 24zm27-161c203 0 314-172 314-421 0-247-108-413-314-413-212 0-317 181-317 413 0 235 108 421 317 421" id="Z"/><g id="c"><use transform="matrix(0.010850694444444444,0,0,0.010850694444444444,0,0)" xlink:href="#X"/><use transform="matrix(0.010850694444444444,0,0,0.010850694444444444,12.6953125,0)" xlink:href="#T"/><use transform="matrix(0.010850694444444444,0,0,0.010850694444444444,18.077256944444443,0)" xlink:href="#Y"/><use transform="matrix(0.010850694444444444,0,0,0.010850694444444444,31.40190972222222,0)" xlink:href="#R"/><use transform="matrix(0.010850694444444444,0,0,0.010850694444444444,44.54210069444444,0)" xlink:href="#Z"/></g><path d="M218-607c0-325 108-727 258-974h175c-155 315-250 682-250 974 0 265 78 531 250 886H476C306-10 218-315 218-607" id="aa"/><path d="M180 0v-1490h510c348 0 508 209 508 474 0 266-160 477-507 477H370V0H180zm190-706h312c236 0 327-133 327-310 0-176-91-307-329-307H370v617" id="ab"/><path d="M783 20c-382 0-661-292-661-764 0-473 279-766 661-766 302 0 548 182 601 489h-190c-42-204-217-313-411-313-268 0-476 208-476 590 0 381 209 588 476 588 195 0 369-110 411-313h190c-52 303-296 489-601 489" id="ac"/><path d="M96 279C273-86 346-350 346-607c0-292-95-659-250-974h175c150 246 258 650 258 974 0 297-91 602-258 886H96" id="ad"/><g id="d"><use transform="matrix(0.010850694444444444,0,0,0.010850694444444444,0,0)" xlink:href="#aa"/><use transform="matrix(0.010850694444444444,0,0,0.010850694444444444,8.10546875,0)" xlink:href="#N"/><use transform="matrix(0.010850694444444444,0,0,0.010850694444444444,23.4375,0)" xlink:href="#ab"/><use transform="matrix(0.010850694444444444,0,0,0.010850694444444444,37.63020833333333,0)" xlink:href="#ac"/><use transform="matrix(0.010850694444444444,0,0,0.010850694444444444,53.86284722222221,0)" xlink:href="#ad"/></g><path d="M52 0l541-1490h220L1361 0h-200l-149-416H398L254 0H52zm404-582h497c-103-290-145-390-251-756-108 377-145 460-246 756" id="ae"/><path d="M158 0v-1118h175l1 205c55-151 181-225 313-225 147 0 245 90 285 228 53-141 190-228 352-228 194 0 352 125 352 384V0h-181v-749c0-161-105-225-225-225-151 0-243 103-243 244V0H807v-767c0-124-93-207-219-207-131 0-250 92-250 270V0H158" id="af"/><path d="M126 0v-134l627-806v-11H146v-167h839v143L376-178v11h629V0H126" id="ag"/><path d="M338-670V0H158v-1118h173l1 207c72-158 192-221 342-221 226 0 378 139 378 422V0H872v-695c0-172-96-275-252-275-161 0-282 109-282 300" id="ah"/><g id="e"><use transform="matrix(0.010850694444444444,0,0,0.010850694444444444,0,0)" xlink:href="#ae"/><use transform="matrix(0.010850694444444444,0,0,0.010850694444444444,15.33203125,0)" xlink:href="#af"/><use transform="matrix(0.010850694444444444,0,0,0.010850694444444444,34.79817708333333,0)" xlink:href="#S"/><use transform="matrix(0.010850694444444444,0,0,0.010850694444444444,47.27647569444444,0)" xlink:href="#ag"/><use transform="matrix(0.010850694444444444,0,0,0.010850694444444444,59.22309027777778,0)" xlink:href="#Y"/><use transform="matrix(0.010850694444444444,0,0,0.010850694444444444,72.54774305555554,0)" xlink:href="#ah"/></g><g id="f"><use transform="matrix(0.010850694444444444,0,0,0.010850694444444444,0,0)" xlink:href="#ac"/><use transform="matrix(0.010850694444444444,0,0,0.010850694444444444,16.23263888888889,0)" xlink:href="#T"/><use transform="matrix(0.010850694444444444,0,0,0.010850694444444444,21.614583333333336,0)" xlink:href="#Y"/><use transform="matrix(0.010850694444444444,0,0,0.010850694444444444,34.939236111111114,0)" xlink:href="#R"/><use transform="matrix(0.010850694444444444,0,0,0.010850694444444444,48.07942708333333,0)" xlink:href="#Z"/></g><path d="M538 24C308 24 148-78 108-271l171-41c32 123 123 178 257 178 156 0 256-77 256-169 0-77-54-128-164-154l-186-44c-203-48-300-148-300-305 0-192 176-326 414-326 230 0 351 112 402 269l-163 42c-31-80-94-158-238-158-133 0-233 69-233 162 0 83 57 129 188 160l169 40c203 48 298 149 298 302 0 196-179 339-441 339" id="ai"/><path d="M798-719v166H144v-166h654" id="aj"/><g id="g"><use transform="matrix(0.010850694444444444,0,0,0.010850694444444444,0,0)" xlink:href="#R"/><use transform="matrix(0.010850694444444444,0,0,0.010850694444444444,13.140190972222221,0)" xlink:href="#ai"/><use transform="matrix(0.010850694444444444,0,0,0.010850694444444444,24.869791666666664,0)" xlink:href="#aj"/><use transform="matrix(0.010850694444444444,0,0,0.010850694444444444,35.09114583333333,0)" xlink:href="#W"/><use transform="matrix(0.010850694444444444,0,0,0.010850694444444444,48.26388888888888,0)" xlink:href="#S"/><use transform="matrix(0.010850694444444444,0,0,0.010850694444444444,60.742187499999986,0)" xlink:href="#ai"/><use transform="matrix(0.010850694444444444,0,0,0.010850694444444444,72.47178819444443,0)" xlink:href="#Q"/></g><path d="M653-1490V0H466v-1314h-10L96-1047v-204l324-239h233" id="ak"/><use transform="matrix(0.010850694444444444,0,0,0.010850694444444444,0,0)" xlink:href="#ak" id="h"/><g id="j"><use transform="matrix(0.010416666666666668,0,0,0.010416666666666668,0,0)" xlink:href="#R"/><use transform="matrix(0.010416666666666668,0,0,0.010416666666666668,12.614583333333334,0)" xlink:href="#ai"/><use transform="matrix(0.010416666666666668,0,0,0.010416666666666668,23.874999999999996,0)" xlink:href="#aj"/><use transform="matrix(0.010416666666666668,0,0,0.010416666666666668,33.6875,0)" xlink:href="#W"/><use transform="matrix(0.010416666666666668,0,0,0.010416666666666668,46.333333333333336,0)" xlink:href="#S"/><use transform="matrix(0.010416666666666668,0,0,0.010416666666666668,58.3125,0)" xlink:href="#ai"/><use transform="matrix(0.010416666666666668,0,0,0.010416666666666668,69.57291666666667,0)" xlink:href="#Q"/><use transform="matrix(0.010416666666666668,0,0,0.010416666666666668,76.13541666666667,0)" xlink:href="#aj"/><use transform="matrix(0.010416666666666668,0,0,0.010416666666666668,85.94791666666667,0)" xlink:href="#ak"/><use transform="matrix(0.010416666666666668,0,0,0.010416666666666668,94.62499999999999,0)" xlink:href="#S"/></g><path d="M677 24c-213 0-288-135-325-197h-20V0H158v-1490h180v551h14c37-59 106-193 324-193 279 0 474 222 474 576 0 356-194 580-473 580zm-27-161c209 0 317-186 317-421 0-232-105-413-317-413-206 0-314 166-314 413 0 249 111 421 314 421" id="al"/><g id="l"><use transform="matrix(0.010416666666666668,0,0,0.010416666666666668,0,0)" xlink:href="#R"/><use transform="matrix(0.010416666666666668,0,0,0.010416666666666668,12.614583333333334,0)" xlink:href="#ai"/><use transform="matrix(0.010416666666666668,0,0,0.010416666666666668,23.874999999999996,0)" xlink:href="#aj"/><use transform="matrix(0.010416666666666668,0,0,0.010416666666666668,33.6875,0)" xlink:href="#W"/><use transform="matrix(0.010416666666666668,0,0,0.010416666666666668,46.333333333333336,0)" xlink:href="#S"/><use transform="matrix(0.010416666666666668,0,0,0.010416666666666668,58.3125,0)" xlink:href="#ai"/><use transform="matrix(0.010416666666666668,0,0,0.010416666666666668,69.57291666666667,0)" xlink:href="#Q"/><use transform="matrix(0.010416666666666668,0,0,0.010416666666666668,76.13541666666667,0)" xlink:href="#aj"/><use transform="matrix(0.010416666666666668,0,0,0.010416666666666668,85.94791666666667,0)" xlink:href="#ak"/><use transform="matrix(0.010416666666666668,0,0,0.010416666666666668,94.62499999999999,0)" xlink:href="#al"/></g><g id="m"><use transform="matrix(0.010850694444444444,0,0,0.010850694444444444,0,0)" xlink:href="#ab"/><use transform="matrix(0.010850694444444444,0,0,0.010850694444444444,14.192708333333332,0)" xlink:href="#R"/><use transform="matrix(0.010850694444444444,0,0,0.010850694444444444,27.332899305555554,0)" xlink:href="#al"/><use transform="matrix(0.010850694444444444,0,0,0.010850694444444444,40.939670138888886,0)" xlink:href="#T"/><use transform="matrix(0.010850694444444444,0,0,0.010850694444444444,46.32161458333333,0)" xlink:href="#O"/><use transform="matrix(0.010850694444444444,0,0,0.010850694444444444,51.70355902777778,0)" xlink:href="#X"/></g><g id="n"><use transform="matrix(0.010850694444444444,0,0,0.010850694444444444,0,0)" xlink:href="#ai"/><use transform="matrix(0.010850694444444444,0,0,0.010850694444444444,11.729600694444445,0)" xlink:href="#R"/><use transform="matrix(0.010850694444444444,0,0,0.010850694444444444,24.869791666666664,0)" xlink:href="#al"/><use transform="matrix(0.010850694444444444,0,0,0.010850694444444444,38.4765625,0)" xlink:href="#ah"/><use transform="matrix(0.010850694444444444,0,0,0.010850694444444444,51.60590277777778,0)" xlink:href="#W"/><use transform="matrix(0.010850694444444444,0,0,0.010850694444444444,64.56163194444444,0)" xlink:href="#Q"/></g><g id="o"><use transform="matrix(0.010850694444444444,0,0,0.010850694444444444,0,0)" xlink:href="#ab"/><use transform="matrix(0.010850694444444444,0,0,0.010850694444444444,14.192708333333332,0)" xlink:href="#P"/><use transform="matrix(0.010850694444444444,0,0,0.010850694444444444,22.90581597222222,0)" xlink:href="#O"/><use transform="matrix(0.010850694444444444,0,0,0.010850694444444444,28.287760416666664,0)" xlink:href="#V"/><use transform="matrix(0.010850694444444444,0,0,0.010850694444444444,40.66840277777778,0)" xlink:href="#S"/><use transform="matrix(0.010850694444444444,0,0,0.010850694444444444,53.146701388888886,0)" xlink:href="#Q"/><use transform="matrix(0.010850694444444444,0,0,0.010850694444444444,60.19965277777778,0)" xlink:href="#W"/></g><g id="p"><use transform="matrix(0.010850694444444444,0,0,0.010850694444444444,0,0)" xlink:href="#ae"/><use transform="matrix(0.010850694444444444,0,0,0.010850694444444444,15.33203125,0)" xlink:href="#R"/><use transform="matrix(0.010850694444444444,0,0,0.010850694444444444,28.47222222222222,0)" xlink:href="#Q"/><use transform="matrix(0.010850694444444444,0,0,0.010850694444444444,35.52517361111111,0)" xlink:href="#Y"/></g><path d="M657 26c-323 0-524-166-541-416h195c15 169 171 246 346 246 202 0 356-106 356-265 5-203-294-238-475-293-239-73-380-191-380-389 0-252 224-419 512-419 294 0 499 171 508 396H992c-17-145-151-228-328-228-193 0-321 102-321 242 0 156 175 211 284 241l149 41c160 44 422 134 422 412 0 244-197 432-541 432" id="am"/><path d="M611 442c-248 0-391-105-460-228l146-94c47 65 117 165 314 165 178 0 307-82 307-266v-224h-17C863-141 792-18 576-18c-268 0-472-195-472-546 0-346 197-568 476-568 216 0 288 133 326 193h17v-179h175V29c0 289-215 413-487 413zm-5-620c203 0 314-146 314-390 0-237-108-403-314-403-213 0-319 180-319 403 0 230 109 390 319 390" id="an"/><g id="q"><use transform="matrix(0.010850694444444444,0,0,0.010850694444444444,0,0)" xlink:href="#am"/><use transform="matrix(0.010850694444444444,0,0,0.010850694444444444,14.2578125,0)" xlink:href="#X"/><use transform="matrix(0.010850694444444444,0,0,0.010850694444444444,27.17013888888889,0)" xlink:href="#S"/><use transform="matrix(0.010850694444444444,0,0,0.010850694444444444,39.6484375,0)" xlink:href="#T"/><use transform="matrix(0.010850694444444444,0,0,0.010850694444444444,45.03038194444444,0)" xlink:href="#O"/><use transform="matrix(0.010850694444444444,0,0,0.010850694444444444,50.412326388888886,0)" xlink:href="#ah"/><use transform="matrix(0.010850694444444444,0,0,0.010850694444444444,63.541666666666664,0)" xlink:href="#an"/></g><g id="r"><use transform="matrix(0.010850694444444444,0,0,0.010850694444444444,0,0)" xlink:href="#an"/><use transform="matrix(0.010850694444444444,0,0,0.010850694444444444,13.628472222222221,0)" xlink:href="#P"/><use transform="matrix(0.010850694444444444,0,0,0.010850694444444444,21.62543402777778,0)" xlink:href="#Y"/><use transform="matrix(0.010850694444444444,0,0,0.010850694444444444,34.95008680555556,0)" xlink:href="#R"/><use transform="matrix(0.010850694444444444,0,0,0.010850694444444444,48.09027777777778,0)" xlink:href="#U"/></g><path d="M154 0v-137l495-537c165-179 249-281 249-418 0-156-121-253-280-253-170 0-278 110-278 278H158c0-264 200-443 465-443 266 0 455 183 455 416 0 161-73 288-336 568L416-179v12h687V0H154" id="ao"/><path d="M295 13c-75 0-135-60-135-135s60-135 135-135 135 60 135 135S370 13 295 13" id="ap"/><g id="s"><use transform="matrix(0.010850694444444444,0,0,0.010850694444444444,0,0)" xlink:href="#Q"/><use transform="matrix(0.010850694444444444,0,0,0.010850694444444444,7.269965277777778,0)" xlink:href="#ao"/><use transform="matrix(0.010850694444444444,0,0,0.010850694444444444,20.82248263888889,0)" xlink:href="#ap"/><use transform="matrix(0.010850694444444444,0,0,0.010850694444444444,27.22439236111111,0)" xlink:href="#af"/><use transform="matrix(0.010850694444444444,0,0,0.010850694444444444,46.69053819444444,0)" xlink:href="#O"/><use transform="matrix(0.010850694444444444,0,0,0.010850694444444444,52.072482638888886,0)" xlink:href="#X"/><use transform="matrix(0.010850694444444444,0,0,0.010850694444444444,64.76779513888889,0)" xlink:href="#P"/><use transform="matrix(0.010850694444444444,0,0,0.010850694444444444,72.76475694444444,0)" xlink:href="#Y"/></g><path d="M180 0v-1490h224l606 953c40 63 108 177 176 312-27-437-7-821-13-1265h190V0h-226C860-448 622-778 356-1262c27 476 11 792 15 1262H180" id="aq"/><path d="M98-1322v-168h1126v168H757V0H567v-1322H98" id="ar"/><g id="t"><use transform="matrix(0.010850694444444444,0,0,0.010850694444444444,0,0)" xlink:href="#aq"/><use transform="matrix(0.010850694444444444,0,0,0.010850694444444444,16.74262152777778,0)" xlink:href="#ae"/><use transform="matrix(0.010850694444444444,0,0,0.010850694444444444,30.186631944444443,0)" xlink:href="#ar"/></g><path d="M409 0L70-1118h191c89 329 165 560 243 925 75-353 154-601 240-925h192c85 325 161 564 235 922 77-354 157-598 244-922h191L1267 0h-179c-86-307-176-590-250-913C763-588 675-308 588 0H409" id="as"/><path d="M140 405l46-156c120 36 205 19 263-150l32-93L54-1118h197c107 313 237 620 324 950 87-331 219-637 326-950h196L606 167c-68 178-176 259-334 259-64 0-113-12-132-21" id="at"/><g id="u"><use transform="matrix(0.010850694444444444,0,0,0.010850694444444444,0,0)" xlink:href="#an"/><use transform="matrix(0.010850694444444444,0,0,0.010850694444444444,13.628472222222221,0)" xlink:href="#S"/><use transform="matrix(0.010850694444444444,0,0,0.010850694444444444,26.106770833333332,0)" xlink:href="#Q"/><use transform="matrix(0.010850694444444444,0,0,0.010850694444444444,33.15972222222222,0)" xlink:href="#W"/><use transform="matrix(0.010850694444444444,0,0,0.010850694444444444,45.71397569444444,0)" xlink:href="#as"/><use transform="matrix(0.010850694444444444,0,0,0.010850694444444444,63.89973958333333,0)" xlink:href="#S"/><use transform="matrix(0.010850694444444444,0,0,0.010850694444444444,76.0525173611111,0)" xlink:href="#at"/></g><path d="M180 0v-1490h510c348 0 508 194 508 460 0 198-88 351-276 417L1256 0h-220L726-579c-117 2-238 0-356 1V0H180zm190-747h312c235 0 327-108 327-283 0-177-92-293-329-293H370v576" id="au"/><path d="M645 0H180v-1490h484c435 0 692 280 692 742 0 466-257 748-711 748zM370-168h263c363 0 539-218 539-580 0-358-176-574-521-574H370v1154" id="av"/><g id="v"><use transform="matrix(0.010850694444444444,0,0,0.010850694444444444,0,0)" xlink:href="#au"/><use transform="matrix(0.010850694444444444,0,0,0.010850694444444444,14.301215277777777,0)" xlink:href="#av"/><use transform="matrix(0.010850694444444444,0,0,0.010850694444444444,30.338541666666664,0)" xlink:href="#am"/></g><path d="M180 0v-1490h270l367 940c28 72 75 218 110 339 35-117 81-264 110-339l362-940h271V0h-187c2-448-5-837 7-1287-157 497-311 829-483 1287H842C666-458 514-784 354-1284c12 438 5 843 7 1284H180" id="aw"/><path d="M1096 418H916v-591h-14C865-111 790 24 577 24c-279 0-473-224-473-580 0-354 195-576 474-576 218 0 287 134 324 193h20v-179h174V418zM604-137c203 0 314-172 314-421 0-247-108-413-314-413-212 0-317 181-317 413 0 235 108 421 317 421" id="ax"/><g id="w"><use transform="matrix(0.010850694444444444,0,0,0.010850694444444444,0,0)" xlink:href="#aw"/><use transform="matrix(0.010850694444444444,0,0,0.010850694444444444,20.182291666666664,0)" xlink:href="#at"/><use transform="matrix(0.010850694444444444,0,0,0.010850694444444444,32.67144097222222,0)" xlink:href="#ai"/><use transform="matrix(0.010850694444444444,0,0,0.010850694444444444,44.401041666666664,0)" xlink:href="#ax"/><use transform="matrix(0.010850694444444444,0,0,0.010850694444444444,58.0078125,0)" xlink:href="#T"/></g><g id="x"><use transform="matrix(0.010850694444444444,0,0,0.010850694444444444,0,0)" xlink:href="#U"/><use transform="matrix(0.010850694444444444,0,0,0.010850694444444444,13.606770833333332,0)" xlink:href="#P"/><use transform="matrix(0.010850694444444444,0,0,0.010850694444444444,22.31987847222222,0)" xlink:href="#O"/><use transform="matrix(0.010850694444444444,0,0,0.010850694444444444,27.701822916666664,0)" xlink:href="#af"/><use transform="matrix(0.010850694444444444,0,0,0.010850694444444444,47.16796875,0)" xlink:href="#S"/><use transform="matrix(0.010850694444444444,0,0,0.010850694444444444,59.64626736111112,0)" xlink:href="#P"/><use transform="matrix(0.010850694444444444,0,0,0.010850694444444444,68.359375,0)" xlink:href="#at"/></g><g id="y"><use transform="matrix(0.010850694444444444,0,0,0.010850694444444444,0,0)" xlink:href="#am"/><use transform="matrix(0.010850694444444444,0,0,0.010850694444444444,14.2578125,0)" xlink:href="#Q"/><use transform="matrix(0.010850694444444444,0,0,0.010850694444444444,21.63628472222222,0)" xlink:href="#S"/><use transform="matrix(0.010850694444444444,0,0,0.010850694444444444,34.11458333333333,0)" xlink:href="#ah"/><use transform="matrix(0.010850694444444444,0,0,0.010850694444444444,47.24392361111111,0)" xlink:href="#Z"/><use transform="matrix(0.010850694444444444,0,0,0.010850694444444444,60.85069444444444,0)" xlink:href="#al"/><use transform="matrix(0.010850694444444444,0,0,0.010850694444444444,74.0234375,0)" xlink:href="#at"/></g><g id="z"><use transform="matrix(0.010850694444444444,0,0,0.010850694444444444,0,0)" xlink:href="#am"/><use transform="matrix(0.010850694444444444,0,0,0.010850694444444444,14.2578125,0)" xlink:href="#W"/><use transform="matrix(0.010850694444444444,0,0,0.010850694444444444,27.213541666666664,0)" xlink:href="#ai"/><use transform="matrix(0.010850694444444444,0,0,0.010850694444444444,38.94314236111111,0)" xlink:href="#ai"/><use transform="matrix(0.010850694444444444,0,0,0.010850694444444444,50.67274305555556,0)" xlink:href="#O"/><use transform="matrix(0.010850694444444444,0,0,0.010850694444444444,56.054687499999986,0)" xlink:href="#Y"/><use transform="matrix(0.010850694444444444,0,0,0.010850694444444444,69.37934027777777,0)" xlink:href="#ah"/></g><g id="A"><use transform="matrix(0.010850694444444444,0,0,0.010850694444444444,0,0)" xlink:href="#aw"/><use transform="matrix(0.010850694444444444,0,0,0.010850694444444444,20.07378472222222,0)" xlink:href="#S"/><use transform="matrix(0.010850694444444444,0,0,0.010850694444444444,32.55208333333333,0)" xlink:href="#ah"/><use transform="matrix(0.010850694444444444,0,0,0.010850694444444444,45.68142361111111,0)" xlink:href="#S"/><use transform="matrix(0.010850694444444444,0,0,0.010850694444444444,58.15972222222221,0)" xlink:href="#an"/><use transform="matrix(0.010850694444444444,0,0,0.010850694444444444,71.78819444444443,0)" xlink:href="#W"/><use transform="matrix(0.010850694444444444,0,0,0.010850694444444444,84.7439236111111,0)" xlink:href="#P"/></g><g id="B"><use transform="matrix(0.010850694444444444,0,0,0.010850694444444444,0,0)" xlink:href="#am"/><use transform="matrix(0.010850694444444444,0,0,0.010850694444444444,14.2578125,0)" xlink:href="#am"/><use transform="matrix(0.010850694444444444,0,0,0.010850694444444444,28.515625,0)" xlink:href="#aw"/></g><g id="C"><use transform="matrix(0.010850694444444444,0,0,0.010850694444444444,0,0)" xlink:href="#as"/><use transform="matrix(0.010850694444444444,0,0,0.010850694444444444,18.18576388888889,0)" xlink:href="#S"/><use transform="matrix(0.010850694444444444,0,0,0.010850694444444444,30.6640625,0)" xlink:href="#ai"/></g><g id="D"><use transform="matrix(0.010850694444444444,0,0,0.010850694444444444,0,0)" xlink:href="#O"/><use transform="matrix(0.010850694444444444,0,0,0.010850694444444444,5.381944444444445,0)" xlink:href="#af"/><use transform="matrix(0.010850694444444444,0,0,0.010850694444444444,24.84809027777778,0)" xlink:href="#U"/><use transform="matrix(0.010850694444444444,0,0,0.010850694444444444,38.454861111111114,0)" xlink:href="#T"/><use transform="matrix(0.010850694444444444,0,0,0.010850694444444444,43.83680555555556,0)" xlink:href="#W"/><use transform="matrix(0.010850694444444444,0,0,0.010850694444444444,56.79253472222222,0)" xlink:href="#af"/><use transform="matrix(0.010850694444444444,0,0,0.010850694444444444,76.25868055555556,0)" xlink:href="#W"/><use transform="matrix(0.010850694444444444,0,0,0.010850694444444444,89.21440972222221,0)" xlink:href="#ah"/><use transform="matrix(0.010850694444444444,0,0,0.010850694444444444,102.34375,0)" xlink:href="#Q"/><use transform="matrix(0.010850694444444444,0,0,0.010850694444444444,109.39670138888889,0)" xlink:href="#W"/><use transform="matrix(0.010850694444444444,0,0,0.010850694444444444,122.35243055555556,0)" xlink:href="#Z"/></g><g id="E"><use transform="matrix(0.010850694444444444,0,0,0.010850694444444444,0,0)" xlink:href="#ai"/><use transform="matrix(0.010850694444444444,0,0,0.010850694444444444,11.729600694444445,0)" xlink:href="#Y"/></g><path d="M338-670V0H158v-1490h180v566c73-149 190-208 336-208 226 0 379 139 379 422V0H872v-695c0-172-96-275-252-275-161 0-282 109-282 300" id="ay"/><g id="F"><use transform="matrix(0.010850694444444444,0,0,0.010850694444444444,0,0)" xlink:href="#Q"/><use transform="matrix(0.010850694444444444,0,0,0.010850694444444444,7.269965277777778,0)" xlink:href="#ay"/><use transform="matrix(0.010850694444444444,0,0,0.010850694444444444,20.41015625,0)" xlink:href="#W"/><use transform="matrix(0.010850694444444444,0,0,0.010850694444444444,33.365885416666664,0)" xlink:href="#P"/><use transform="matrix(0.010850694444444444,0,0,0.010850694444444444,41.362847222222214,0)" xlink:href="#W"/></g><g id="G"><use transform="matrix(0.010850694444444444,0,0,0.010850694444444444,0,0)" xlink:href="#Q"/><use transform="matrix(0.010850694444444444,0,0,0.010850694444444444,7.052951388888888,0)" xlink:href="#Y"/></g><g id="H"><use transform="matrix(0.010850694444444444,0,0,0.010850694444444444,0,0)" xlink:href="#ah"/><use transform="matrix(0.010850694444444444,0,0,0.010850694444444444,13.129340277777777,0)" xlink:href="#W"/><use transform="matrix(0.010850694444444444,0,0,0.010850694444444444,26.085069444444443,0)" xlink:href="#W"/><use transform="matrix(0.010850694444444444,0,0,0.010850694444444444,39.04079861111111,0)" xlink:href="#Z"/></g><path d="M678-1118v154H420V0H240v-964H20v-154h220v-149c0-194 155-293 318-293 85 0 141 18 168 30l-50 154c-19-6-47-17-97-17-111 0-159 58-159 166v109h258" id="az"/><g id="I"><use transform="matrix(0.010850694444444444,0,0,0.010850694444444444,0,0)" xlink:href="#az"/><use transform="matrix(0.010850694444444444,0,0,0.010850694444444444,7.573784722222222,0)" xlink:href="#Y"/><use transform="matrix(0.010850694444444444,0,0,0.010850694444444444,20.8984375,0)" xlink:href="#P"/></g><g id="J"><use transform="matrix(0.010850694444444444,0,0,0.010850694444444444,0,0)" xlink:href="#ai"/><use transform="matrix(0.010850694444444444,0,0,0.010850694444444444,11.729600694444445,0)" xlink:href="#ai"/><use transform="matrix(0.010850694444444444,0,0,0.010850694444444444,23.45920138888889,0)" xlink:href="#ay"/></g><path fill="#0f141a" d="M416-495c-3 181 88 274 258 274 169 0 257-89 257-266v-969h301v959c3 324-227 517-558 517-328 0-557-188-558-506v-970h300v961" id="aA"/><path fill="#0f141a" d="M663-1102c295 0 422 250 422 571 0 300-141 549-420 551-109 0-198-38-265-114v510H111v-1498h268l10 106c70-84 161-126 274-126zm133 550c0-175-53-315-209-315-91 0-153 35-187 104v443c35 71 98 107 189 107 138 0 207-113 207-339" id="aB"/><path fill="#0f141a" d="M416 0H126v-1536h290V0" id="aC"/><path fill="#0f141a" d="M579 20C257 20 58-214 66-551c8-331 182-551 511-551 324 0 514 231 514 572 0 319-198 550-512 550zm-2-888c-169 0-222 141-222 338 0 181 61 317 224 317 170 0 223-137 223-338 0-178-64-317-225-317" id="aD"/><path fill="#0f141a" d="M552-1102c254-4 435 134 435 383v469c1 103 15 180 43 233V0H738c-13-26-23-58-29-97C639-19 548 20 436 20 238 20 64-113 68-304c5-258 212-357 496-357h133c11-137-29-227-160-227-90 0-156 45-156 131H92c15-231 213-342 460-345zM357-325c0 76 61 124 142 124 88 0 168-45 198-105v-186H589c-152 2-232 51-232 167" id="aE"/><path fill="#0f141a" d="M488 20C204 20 66-234 66-549c0-305 140-551 424-553 105 0 192 39 261 118v-552h290V0H780l-14-115C694-25 601 20 488 20zM355-528c0 176 51 314 207 314 89 0 152-38 189-113v-427c-36-75-98-113-187-113-139 0-209 113-209 339" id="aF"/><path fill="#0f141a" d="M202 125H-13l536-1581h215" id="aG"/><path fill="#0f141a" d="M1209-1016c0 219-100 334-260 407l315 595V0H942L669-533H430V0H130v-1456h541c318-3 538 141 538 440zm-300 24c-1-144-85-221-238-221H430v437h242c144 2 238-77 237-216" id="aH"/><path fill="#0f141a" d="M1031-175C952-60 797 20 609 20 287 20 60-206 72-543c12-330 180-559 505-559 309 0 482 214 477 537v118H365c15 134 115 234 263 234 111 0 198-40 261-121zM770-644c5-139-62-226-194-224-130 1-191 97-208 224h402" id="aI"/><path fill="#0f141a" d="M457-330c2 83 25 111 111 112 32 0 60-2 85-7V-6c-57 17-115 26-175 26-203 0-310-102-310-307v-583H10v-212h158v-266h289v266h185v212H457v540" id="aJ"/><path fill="#0f141a" d="M719-811c-143-24-279 1-319 103V0H111v-1082h273l8 129c74-124 180-175 331-136" id="aK"/><path fill="#0f141a" d="M416 0H126v-1082h290V0zM271-1212c-92 0-162-61-162-150s68-149 162-149c93 0 162 60 162 149s-70 150-162 150" id="aL"/><path fill="#0f141a" d="M516-353l201-729h302L654 0H378L13-1082h302" id="aM"/><g id="K"><use transform="matrix(0.015625,0,0,0.015625,0,0)" xlink:href="#aA"/><use transform="matrix(0.015625,0,0,0.015625,21.0625,0)" xlink:href="#aB"/><use transform="matrix(0.015625,0,0,0.015625,39.078125,0)" xlink:href="#aC"/><use transform="matrix(0.015625,0,0,0.015625,47.5625,0)" xlink:href="#aD"/><use transform="matrix(0.015625,0,0,0.015625,65.65625,0)" xlink:href="#aE"/><use transform="matrix(0.015625,0,0,0.015625,82.8125,0)" xlink:href="#aF"/><use transform="matrix(0.015625,0,0,0.015625,100.84375,0)" xlink:href="#aG"/><use transform="matrix(0.015625,0,0,0.015625,112.796875,0)" xlink:href="#aH"/><use transform="matrix(0.015625,0,0,0.015625,133.21875,0)" xlink:href="#aI"/><use transform="matrix(0.015625,0,0,0.015625,150.515625,0)" xlink:href="#aJ"/><use transform="matrix(0.015625,0,0,0.015625,161.328125,0)" xlink:href="#aK"/><use transform="matrix(0.015625,0,0,0.015625,173,0)" xlink:href="#aL"/><use transform="matrix(0.015625,0,0,0.015625,181.484375,0)" xlink:href="#aI"/><use transform="matrix(0.015625,0,0,0.015625,198.578125,0)" xlink:href="#aM"/><use transform="matrix(0.015625,0,0,0.015625,214.546875,0)" xlink:href="#aI"/></g><path fill="#0f141a" d="M522-1456L896-400l372-1056h394V0h-301c-7-379 15-728 30-1085L998 0H792L400-1084c15 357 37 705 30 1084H130v-1456h392" id="aN"/><g id="L"><use transform="matrix(0.015625,0,0,0.015625,0,0)" xlink:href="#aN"/><use transform="matrix(0.015625,0,0,0.015625,28.03125,0)" xlink:href="#aI"/><use transform="matrix(0.015625,0,0,0.015625,45.328125,0)" xlink:href="#aF"/><use transform="matrix(0.015625,0,0,0.015625,63.359375,0)" xlink:href="#aL"/><use transform="matrix(0.015625,0,0,0.015625,71.84375,0)" xlink:href="#aE"/></g><path d="M763 24c-353 0-583-224-583-531v-983h190v968c0 214 149 370 393 370 243 0 391-156 391-370v-968h190v983c0 307-230 531-581 531" id="aO"/><g id="M"><use transform="matrix(0.010850694444444444,0,0,0.010850694444444444,0,0)" xlink:href="#aO"/><use transform="matrix(0.010850694444444444,0,0,0.010850694444444444,16.536458333333332,0)" xlink:href="#ai"/><use transform="matrix(0.010850694444444444,0,0,0.010850694444444444,28.266059027777775,0)" xlink:href="#W"/><use transform="matrix(0.010850694444444444,0,0,0.010850694444444444,41.22178819444444,0)" xlink:href="#P"/><use transform="matrix(0.010850694444444444,0,0,0.010850694444444444,49.58767361111111,0)" xlink:href="#ai"/></g></defs></g></svg>
